<svg width="371" height="393" viewBox="0 0 371 393" fill="none" xmlns="http://www.w3.org/2000/svg">
    <path d="M250.735 338.829C315.451 315.787 355.476 274.613 359.654 212.336C364.571 139.062 316.467 129.667 250.735 85.8435C199.274 51.5339 145.262 2.74618 88.732 29.9091C26.2578 59.9282 66.1405 117.907 61.1354 181.261C56.8725 235.221 31.5799 255.517 61.1354 302.688C98.1898 361.828 180.387 363.877 250.735 338.829Z"
          fill="#99B0A7"/>
    <circle cx="69" cy="58" r="54.5" stroke="#B1BFEC" stroke-width="7">
        <animate attributeName="stroke" values="#E2F0DA;#B1BFEC; " dur="7s" repeatCount="indefinite"
                 keySplines="0 0 0.58 1"/>
    </circle>
    <circle cx="69" cy="58" r="42.9" stroke="#B1BFEC" stroke-width="7">
        <animate attributeName="stroke" values="#E2F0DA;#B1BFEC; " dur="6s" repeatCount="indefinite"
                 keySplines="0 0 0.58 1"/>
    </circle>
    <circle cx="69" cy="56.84" r="8.1" stroke="#B1BFEC" stroke-width="7">
        <animate attributeName="stroke" values="#E2F0DA;#B1BFEC; " dur="3s" repeatCount="indefinite"
                 keySplines="0 0 0.58 1"/>
    </circle>
    <circle cx="68.9999" cy="56.84" r="19.7" stroke="#B1BFEC" stroke-width="7">
        <animate attributeName="stroke" values="#E2F0DA;#B1BFEC; " dur="4s" repeatCount="indefinite"
                 keySplines="0 0 0.58 1"/>
    </circle>
    <circle cx="69.0001" cy="58.0001" r="31.3" stroke="#B1BFEC" stroke-width="7">
        <animate attributeName="stroke" values="#E2F0DA;#B1BFEC; " dur="5s" repeatCount="indefinite"
                 keySplines="0 0 0.58 1"/>
    </circle>
    <g clip-path="url(#clip0_155_225)">
        <path d="M185.5 207.5V258.512C185.5 263.432 183.546 268.15 180.067 271.629C176.588 275.108 171.87 277.062 166.95 277.062H127.531C123.227 277.062 119.098 278.772 116.054 281.816C113.01 284.86 111.3 288.989 111.3 293.294V293.294C111.3 297.598 113.01 301.727 116.054 304.771C119.098 307.815 123.227 309.525 127.531 309.525H213.325"
              stroke="white" stroke-width="7" stroke-linecap="round" stroke-linejoin="round"/>
        <path d="M259.7 295.612H244.994" stroke="white" stroke-width="7" stroke-linecap="round"
              stroke-linejoin="round"/>
        <path d="M259.7 323.437H244.994" stroke="white" stroke-width="7" stroke-linecap="round"
              stroke-linejoin="round"/>
        <path d="M231.875 286.337H227.238C219.554 286.337 213.325 292.566 213.325 300.25V318.8C213.325 326.484 219.554 332.712 227.238 332.712H231.875C239.559 332.712 245.788 326.484 245.788 318.8V300.25C245.788 292.566 239.559 286.337 231.875 286.337Z"
              fill="#D4B8A3"/>
        <path d="M245.788 318.8V300.25C245.788 303.94 244.322 307.478 241.713 310.087C239.104 312.697 235.565 314.162 231.875 314.162H227.238C223.548 314.162 220.009 312.697 217.4 310.087C214.791 307.478 213.325 303.94 213.325 300.25V318.8C213.325 322.49 214.791 326.028 217.4 328.638C220.009 331.247 223.548 332.712 227.238 332.712H231.875C235.565 332.712 239.104 331.247 241.713 328.638C244.322 326.028 245.788 322.49 245.788 318.8V318.8Z"
              fill="#D4B8A3"/>
        <path d="M231.875 286.337H227.238C219.554 286.337 213.325 292.566 213.325 300.25V318.8C213.325 326.484 219.554 332.712 227.238 332.712H231.875C239.559 332.712 245.788 326.484 245.788 318.8V300.25C245.788 292.566 239.559 286.337 231.875 286.337Z"
              stroke="white" stroke-width="7" stroke-linecap="round" stroke-linejoin="round"/>
        <path d="M48.1373 202.862H322.867C324.868 201.137 326.475 199.002 327.578 196.602C328.682 194.201 329.256 191.592 329.263 188.95V170.4C329.263 160.56 325.354 151.124 318.396 144.166C311.439 137.209 302.002 133.3 292.163 133.3H269.146C266.22 133.3 263.336 132.608 260.728 131.28C258.121 129.952 255.865 128.027 254.144 125.66L236.49 101.386C232.188 95.4703 226.547 90.6563 220.029 87.337C213.511 84.0177 206.3 82.2874 198.985 82.2874H108.231C103.887 82.2873 99.6808 83.8119 96.3456 86.5954C93.0103 89.3789 90.7577 93.2447 89.9805 97.5188L86.2446 118.068C85.4675 122.342 83.2149 126.208 79.8797 128.992C76.5444 131.775 72.3379 133.3 67.9937 133.3H60.2875C55.3678 133.3 50.6495 135.254 47.1707 138.733C43.6919 142.212 41.7375 146.93 41.7375 151.85V188.95C41.7445 191.592 42.3196 194.202 43.4238 196.602C44.528 199.003 46.1355 201.138 48.1373 202.862V202.862Z"
              fill="#D4B8A3"/>
        <path d="M310.713 184.312H60.2875C55.3678 184.312 50.6495 182.358 47.1707 178.879C43.6919 175.4 41.7375 170.682 41.7375 165.762V188.95C41.7375 193.87 43.6919 198.588 47.1707 202.067C50.6495 205.545 55.3678 207.5 60.2875 207.5H310.713C315.632 207.5 320.351 205.545 323.829 202.067C327.308 198.588 329.263 193.87 329.263 188.95V170.4C329.263 169.357 329.191 168.332 329.107 167.311C328.733 171.936 326.635 176.251 323.227 179.401C319.82 182.55 315.353 184.303 310.713 184.312Z"
              fill="#AD8757"/>
        <path d="M256.802 131.888L232.455 97.3592L204.05 82.2874H148.4L187.819 121.706L193.979 127.867C195.702 129.589 197.747 130.956 199.997 131.888C202.248 132.82 204.66 133.3 207.096 133.3L256.802 131.888Z"
              fill="#E5E5E5"/>
        <path d="M269.146 133.3H207.096C204.66 133.3 202.248 132.82 199.997 131.888C197.747 130.956 195.702 129.589 193.979 127.867L176.225 110.112"
              stroke="white" stroke-width="7" stroke-linecap="round" stroke-linejoin="round"/>
        <path d="M166.95 207.5H310.713C315.632 207.5 320.351 205.545 323.829 202.067C327.308 198.588 329.263 193.87 329.263 188.95V170.4C329.263 160.56 325.354 151.124 318.396 144.166C311.439 137.209 302.002 133.3 292.163 133.3H269.146C266.22 133.3 263.336 132.608 260.728 131.28C258.121 129.952 255.865 128.027 254.144 125.66L236.49 101.386C232.188 95.4703 226.547 90.6563 220.029 87.337C213.511 84.0177 206.3 82.2874 198.985 82.2874H108.231C103.887 82.2873 99.6808 83.8119 96.3456 86.5954C93.0103 89.3789 90.7577 93.2447 89.9805 97.5188L86.2446 118.068C85.4675 122.342 83.2149 126.208 79.8797 128.992C76.5444 131.775 72.3379 133.3 67.9937 133.3H60.2875C55.3678 133.3 50.6495 135.254 47.1707 138.733C43.6919 142.212 41.7375 146.93 41.7375 151.85V188.95C41.7375 193.87 43.6919 198.588 47.1707 202.067C50.6495 205.545 55.3678 207.5 60.2875 207.5H85.0926"
              stroke="white" stroke-width="7" stroke-linecap="round" stroke-linejoin="round"/>
        <path d="M111.3 244.6C126.667 244.6 139.125 232.142 139.125 216.775C139.125 201.408 126.667 188.95 111.3 188.95C95.9327 188.95 83.475 201.408 83.475 216.775C83.475 232.142 95.9327 244.6 111.3 244.6Z"
              fill="#D4B8A3"/>
        <path d="M255.062 244.6C270.43 244.6 282.887 232.142 282.887 216.775C282.887 201.408 270.43 188.95 255.062 188.95C239.695 188.95 227.237 201.408 227.237 216.775C227.237 232.142 239.695 244.6 255.062 244.6Z"
              fill="#D4B8A3"/>
        <path d="M111.3 244.6C126.667 244.6 139.125 232.142 139.125 216.775C139.125 201.408 126.667 188.95 111.3 188.95C95.9327 188.95 83.475 201.408 83.475 216.775C83.475 232.142 95.9327 244.6 111.3 244.6Z"
              stroke="white" stroke-width="7" stroke-linecap="round" stroke-linejoin="round"/>
        <path d="M255.062 244.6C270.43 244.6 282.887 232.142 282.887 216.775C282.887 201.408 270.43 188.95 255.062 188.95C239.695 188.95 227.237 201.408 227.237 216.775C227.237 232.142 239.695 244.6 255.062 244.6Z"
              stroke="white" stroke-width="7" stroke-linecap="round" stroke-linejoin="round"/>
        <path d="M167.58 395.589C167.58 395.589 166.561 371.219 177.611 367.205C188.303 363.321 192.332 384.31 203.234 381.061C215.142 377.511 203.278 353.492 215.58 351.734C225.724 350.284 226.344 368.096 236.572 367.476C250.123 366.655 239.767 341.003 252.622 336.639C264.654 332.556 271.216 353.657 282.876 348.608C294.279 343.67 283.458 323.286 295.222 319.281C306.35 315.492 311.025 336.117 322.233 332.57C334.347 328.737 323.167 305.897 335.505 302.866C346.316 300.211 357.08 306.414 360.202 317.099"
              stroke="#D5DED5" stroke-width="5"/>
    </g>
    <defs>
        <clipPath id="clip0_155_225">
            <rect width="371" height="371" fill="white" transform="translate(0 21.9999)"/>
        </clipPath>
    </defs>
</svg>
