<svg width="189" height="200" viewBox="0 0 189 200" fill="none" xmlns="http://www.w3.org/2000/svg">
<path d="M65.8028 190.861C26.8291 176.98 2.72459 152.176 0.208092 114.66C-2.75277 70.5194 26.2169 64.8598 65.8028 38.46C96.7948 17.7916 129.322 -11.5986 163.367 4.76462C200.991 22.8484 176.972 57.7753 179.986 95.9405C182.554 128.447 197.786 140.673 179.986 169.089C157.671 204.716 108.169 205.95 65.8028 190.861Z" fill="#667C74"/>
<path fill-rule="evenodd" clip-rule="evenodd" d="M34.9787 51.6268V147.616C34.9787 156.452 42.4019 163.615 51.559 163.615H134.461C143.618 163.615 151.041 156.452 151.041 147.616V51.6268M34.9787 51.6268V35.6285C34.9787 26.7929 42.4019 19.6302 51.559 19.6302H134.461C143.618 19.6302 151.041 26.7929 151.041 35.6285V51.6268M34.9787 51.6268H151.041H34.9787ZM109.59 35.6286H134.461H109.59ZM126.171 107.621C126.171 125.292 111.324 139.617 93.01 139.617C74.6958 139.617 59.8492 125.292 59.8492 107.621M126.171 107.621C126.171 89.9495 111.324 75.6242 93.01 75.6242C74.6958 75.6242 59.8492 89.9495 59.8492 107.621M126.171 107.621C118.801 111.172 101.856 116.156 93.01 107.621C84.1644 99.0856 67.2192 104.069 59.8492 107.621" fill="#D4B8A3"/>
<path d="M38.9787 51.6268C38.9787 49.4177 37.1878 47.6268 34.9787 47.6268C32.7695 47.6268 30.9787 49.4177 30.9787 51.6268H38.9787ZM155.041 51.6268C155.041 49.4177 153.251 47.6268 151.041 47.6268C148.832 47.6268 147.041 49.4177 147.041 51.6268H155.041ZM30.9787 51.6268C30.9787 53.8359 32.7695 55.6268 34.9787 55.6268C37.1878 55.6268 38.9787 53.8359 38.9787 51.6268H30.9787ZM147.041 51.6268C147.041 53.8359 148.832 55.6268 151.041 55.6268C153.251 55.6268 155.041 53.8359 155.041 51.6268H147.041ZM34.9787 47.6268C32.7695 47.6268 30.9787 49.4177 30.9787 51.6268C30.9787 53.8359 32.7695 55.6268 34.9787 55.6268V47.6268ZM151.041 55.6268C153.251 55.6268 155.041 53.8359 155.041 51.6268C155.041 49.4177 153.251 47.6268 151.041 47.6268V55.6268ZM109.59 31.6286C107.381 31.6286 105.59 33.4194 105.59 35.6286C105.59 37.8377 107.381 39.6286 109.59 39.6286V31.6286ZM134.461 39.6286C136.67 39.6286 138.461 37.8377 138.461 35.6286C138.461 33.4194 136.67 31.6286 134.461 31.6286V39.6286ZM130.171 107.621C130.171 105.412 128.38 103.621 126.171 103.621C123.962 103.621 122.171 105.412 122.171 107.621H130.171ZM63.8492 107.621C63.8492 105.412 62.0584 103.621 59.8492 103.621C57.6401 103.621 55.8492 105.412 55.8492 107.621H63.8492ZM122.171 107.621C122.171 109.83 123.962 111.621 126.171 111.621C128.38 111.621 130.171 109.83 130.171 107.621H122.171ZM55.8492 107.621C55.8492 109.83 57.6401 111.621 59.8492 111.621C62.0584 111.621 63.8492 109.83 63.8492 107.621H55.8492ZM127.907 111.224C129.897 110.265 130.733 107.874 129.774 105.884C128.815 103.894 126.424 103.058 124.434 104.017L127.907 111.224ZM58.1127 104.017C56.1226 104.976 55.2868 107.367 56.2458 109.357C57.2049 111.347 59.5956 112.183 61.5857 111.224L58.1127 104.017ZM30.9787 51.6268V147.616H38.9787V51.6268H30.9787ZM30.9787 147.616C30.9787 158.795 40.3288 167.615 51.559 167.615V159.615C44.4751 159.615 38.9787 154.109 38.9787 147.616H30.9787ZM51.559 167.615H134.461V159.615H51.559V167.615ZM134.461 167.615C145.691 167.615 155.041 158.795 155.041 147.616H147.041C147.041 154.109 141.545 159.615 134.461 159.615V167.615ZM155.041 147.616V51.6268H147.041V147.616H155.041ZM38.9787 51.6268V35.6285H30.9787V51.6268H38.9787ZM38.9787 35.6285C38.9787 29.1356 44.4751 23.6302 51.559 23.6302V15.6302C40.3288 15.6302 30.9787 24.4502 30.9787 35.6285H38.9787ZM51.559 23.6302H134.461V15.6302H51.559V23.6302ZM134.461 23.6302C141.545 23.6302 147.041 29.1356 147.041 35.6285H155.041C155.041 24.4502 145.691 15.6302 134.461 15.6302V23.6302ZM147.041 35.6285V51.6268H155.041V35.6285H147.041ZM34.9787 55.6268H151.041V47.6268H34.9787V55.6268ZM109.59 39.6286H134.461V31.6286H109.59V39.6286ZM122.171 107.621C122.171 122.949 109.251 135.617 93.01 135.617V143.617C113.397 143.617 130.171 127.635 130.171 107.621H122.171ZM93.01 135.617C76.769 135.617 63.8492 122.949 63.8492 107.621H55.8492C55.8492 127.635 72.6227 143.617 93.01 143.617V135.617ZM130.171 107.621C130.171 87.6069 113.397 71.6242 93.01 71.6242V79.6242C109.251 79.6242 122.171 92.2922 122.171 107.621H130.171ZM93.01 71.6242C72.6227 71.6242 55.8492 87.6069 55.8492 107.621H63.8492C63.8492 92.2922 76.769 79.6242 93.01 79.6242V71.6242ZM124.434 104.017C121.074 105.637 115.45 107.606 109.748 108.173C103.947 108.75 98.962 107.805 95.7875 104.742L90.2326 110.499C95.9037 115.971 103.814 116.802 110.54 116.134C117.364 115.455 123.897 113.156 127.907 111.224L124.434 104.017ZM95.7875 104.742C90.1164 99.2702 82.206 98.4389 75.4804 99.1078C68.6558 99.7866 62.1226 102.085 58.1127 104.017L61.5857 111.224C64.9459 109.605 70.5703 107.636 76.2721 107.069C82.073 106.492 87.058 107.436 90.2326 110.499L95.7875 104.742Z" fill="white"/>
</svg>
