<svg width="477" height="536" viewBox="0 0 477 536" fill="none" xmlns="http://www.w3.org/2000/svg">
<ellipse cx="259.139" cy="480.739" rx="5.81551" ry="4.84626" stroke="#99B0A7"/>
<ellipse cx="265.6" cy="450.117" rx="6.78476" ry="7.75401" transform="rotate(13.423 265.6 450.117)" stroke="#99B0A7"/>
<ellipse cx="238.785" cy="456.508" rx="6.78476" ry="5.81551" stroke="#99B0A7"/>
<ellipse cx="195.139" cy="72.7393" rx="5.81551" ry="4.84626" stroke="#99B0A7"/>
<ellipse cx="201.6" cy="42.1172" rx="6.78476" ry="7.75401" transform="rotate(13.423 201.6 42.1172)" stroke="#99B0A7"/>
<ellipse cx="174.785" cy="48.508" rx="6.78476" ry="5.81551" stroke="#99B0A7"/>
<path d="M316.364 162.681C315.8 164.782 338.249 218.163 349.544 244.591C360.839 271.018 367.131 334.575 361.238 362.705M316.364 162.681C309.957 188.874 294.53 244.074 294.53 244.074C294.53 244.074 291.891 298.575 291.878 324.419C291.865 350.262 292.562 357.059 295.23 377.759C299.709 412.504 298.309 434.318 316.414 465.116C326.774 482.738 350.36 506.056 350.36 506.056M316.364 162.681L325.947 220.517C325.947 220.517 347.456 307.177 361.238 362.705M361.238 362.705C358.277 401.259 356.538 422.871 353.655 461.429C352.352 478.856 350.36 506.056 350.36 506.056M350.36 506.056C343.072 468.156 328.329 390.669 328.329 390.669C328.329 390.669 319.203 274.744 313.355 200.465" stroke="#99B0A7" stroke-linecap="round"/>
<path d="M311.747 172.579L278.812 234.202L265.201 284.471M265.201 284.471C255.12 314.078 251.165 342.67 233.455 376.874C217.926 406.867 199.9 425.97 183.874 448.728C167.849 471.485 145.738 485.976 145.738 485.976L130.938 505.465L130.255 479.784C130.255 479.784 126.091 458.616 126.805 444.937C127.548 430.684 134.399 408.996 134.399 408.996M265.201 284.471C265.201 284.471 248.652 289.972 238.262 294.004C219.735 301.195 207.885 303.45 192.001 314.892C178.394 324.692 171.361 331.619 162.479 345.279C154.523 357.516 154.04 366.115 148.19 379.308C143.014 390.981 134.399 408.996 134.399 408.996M265.201 284.471C265.201 284.471 253.174 294.127 244.289 298.557C235.37 303.005 229.085 302.771 220.028 306.967C211.315 311.004 206.661 313.825 198.948 319.353C188.128 327.109 181.665 331.744 174.276 342.394C167.253 352.517 168.025 360.289 162.243 371.05C153.635 387.071 134.399 408.996 134.399 408.996M245.131 307.057C227.102 322.919 214.384 329.618 198.964 347.675C186.251 362.561 180.917 372.214 171.457 389.02C157.729 413.407 143.545 454.437 143.545 454.437" stroke="#99B0A7" stroke-linecap="round"/>
<path d="M287.154 187.03C287.154 187.03 216.023 221.404 176.401 251.208C139.155 279.224 90.5941 332.656 90.5941 332.656" stroke="#99B0A7" stroke-linecap="round"/>
<path d="M313.919 166.357C290.418 171.387 277.278 174.38 253.93 180.02C228.345 186.201 213.306 187.786 188.672 196.78C176.932 201.067 169.362 202.14 159.224 209.137C147.064 217.529 143.817 225.822 135.057 237.277C117.995 259.59 109.786 273.266 98.357 298.415M313.919 166.357C282.711 203.591 263.807 223.615 228.117 257.245C206.507 277.607 195.864 290.899 170.826 307.547C147.799 322.858 131.672 326.573 107.082 339.606C77.752 355.152 33.1351 381.258 33.1351 381.258C33.1351 381.258 51.9724 354.339 65.0755 337.757C77.5191 322.009 85.3597 313.779 98.357 298.415M313.919 166.357C294.527 171.65 283.804 175.367 265.396 183.176C250.444 189.519 243.565 196.129 228.17 201.452C209.066 208.058 195.009 201.811 177.048 210.805C164.198 217.24 158.995 223.828 148.611 233.361C124.641 255.366 113.063 270.354 98.357 298.415" stroke="#99B0A7" stroke-linecap="round"/>
<path d="M375.128 89.9187C375.128 89.9187 351.029 97.5673 335.051 98.1779C320.61 98.7297 312.777 95.1654 298.399 94.0822C275.584 92.3637 261.655 86.4932 239.741 93.0235C218.08 99.4781 213.983 117.573 192.732 125.142C182.821 128.672 176.416 127.991 166.377 131.184C148.228 136.958 122.961 152.648 122.961 152.648M375.128 89.9187C375.128 89.9187 367.714 100.161 361.832 105.826C346.15 120.928 331.925 123.376 311.473 132.268C290.752 141.278 278.711 145.832 256.676 151.426C218.938 161.005 157.273 161.267 157.273 161.267M375.128 89.9187C375.128 89.9187 368.223 93.4968 363.583 95.353C351.475 100.197 330.87 102.883 330.87 102.883C330.87 102.883 309.242 103.144 295.474 102.096C282.145 101.081 274.904 96.2496 261.583 97.7272C245.69 99.49 238.542 106.912 224.104 113.453C206.845 121.273 198.253 127.72 180.688 134.917C167.647 140.261 160.162 142.985 146.555 146.879C137.445 149.486 122.961 152.648 122.961 152.648M375.128 89.9187L346.185 107.375C346.185 107.375 319.703 120.363 301.512 125.53C283.786 130.565 273.146 130.644 254.909 133.577C234.204 136.907 222.469 138.002 201.778 141.412C184.974 144.182 175.273 144.684 158.856 149.094C142.984 153.359 119.369 163.303 119.369 163.303L157.273 161.267M122.961 152.648L101.718 172.775L157.273 161.267" stroke="#99B0A7" stroke-linecap="round"/>
<path d="M384.08 88.1327C384.08 88.1327 390.089 110.829 398.17 123.464C405.475 134.885 412.985 138.989 421.757 149.477C435.676 166.117 448.602 173.669 454.457 194.079C460.244 214.252 445.837 227.194 450.379 247.654C452.497 257.197 456.587 261.761 459.083 271.219C463.596 288.319 462.85 316.265 462.85 316.265M384.08 88.1327C384.08 88.1327 378.682 99.3822 376.66 106.976C371.269 127.222 376.714 139.501 379.608 160.061C382.54 180.893 384.869 192.629 391.649 212.625C403.261 246.869 436.374 294.502 436.374 294.502M384.08 88.1327C384.08 88.1327 384.528 95.3853 385.332 99.9627C387.432 111.908 396.109 129.23 396.109 129.23C396.109 129.23 407.568 146.027 415.977 156.063C424.119 165.78 432.474 168.743 438.322 179.801C445.299 192.995 442.347 202.514 444.147 217.171C446.299 234.693 445.025 244.797 447.914 262.217C450.059 275.151 451.605 282.389 455.388 294.975C457.92 303.4 462.85 316.265 462.85 316.265M384.08 88.1327L383.7 119.864C383.7 119.864 386.093 147.284 391.186 164.088C396.148 180.464 401.831 188.7 409.001 204.332C417.14 222.078 422.482 231.708 430.541 249.488C437.086 263.927 441.872 271.67 446.699 286.699C451.367 301.229 455.005 324.795 455.005 324.795L436.374 294.502M462.85 316.265L455.851 343.511L436.374 294.502" stroke="#99B0A7" stroke-linecap="round"/>
<path d="M510.384 1C475.97 15.1824 457.35 25.5166 427.569 46.9628C402.026 65.3579 389.319 77.7355 367.77 100.088C344.469 124.258 332.526 138.954 313.919 166.357" stroke="#99B0A7" stroke-linecap="round"/>
</svg>
