<svg width="419" height="491" viewBox="0 0 419 491" fill="none" xmlns="http://www.w3.org/2000/svg">
    <path d="M42.1066 110.002C42.1066 110.002 39.8886 117.237 40.1519 121.941C40.4283 126.876 42.7835 129.186 43.7167 134.029C44.0683 135.853 44.448 138.732 44.448 138.732M44.448 138.732C44.448 138.732 47.4272 142.601 48.7836 145.408C50.2009 148.34 50.991 149.948 52.1615 152.994C53.4426 156.328 54.4261 158.08 55.8771 161.339C56.6686 163.116 57.2977 164.037 57.9039 165.89C58.737 168.438 59.5928 169.684 59.8552 172.314C60.1175 174.944 60.3998 176.653 60.3044 179.446C60.1914 182.756 59.5024 184.502 59.045 187.843C58.4097 192.483 57.9021 195.092 56.5459 199.579C55.54 202.908 54.3442 204.568 53.4467 207.927C53.0236 209.51 52.5448 212.024 52.5448 212.024M44.448 138.732C44.448 138.732 44.1382 143.634 43.9397 146.775M52.5448 212.024C52.5448 212.024 52.2551 208.814 52.0201 206.764C51.6909 203.891 51.4628 202.286 51.0264 199.43C50.4172 195.442 49.8894 193.241 49.226 189.263C46.4775 172.783 45.3164 163.451 43.9397 146.775M52.5448 212.024C52.5448 212.024 47.4873 209.164 45.4118 206.21C43.9267 204.096 42.9571 202.891 41.9585 200.495C40.7709 197.646 40.5984 195.769 39.876 192.757C38.769 188.142 39.6314 185.326 39.4465 180.566C39.3098 177.05 38.9528 175.084 39.0726 171.563C39.2024 167.75 39.5428 165.614 40.2009 161.85C40.8047 158.397 41.3453 156.497 42.2113 153.099C42.8434 150.618 43.2647 149.245 43.9397 146.775"
          stroke="#AD8757" stroke-linecap="round">
        <animate attributeName="stroke" values="#AD8757; #667C74;#AD8757; " dur="10s" repeatCount="indefinite"/>
    </path>
    <path d="M39.4465 180.566C39.4465 180.566 36.7434 190.743 34.4122 195.794C31.2497 202.646 28.8917 206.24 24.5341 212.389C21.5714 216.569 20.4178 219.54 16.3843 222.66C12.7766 225.451 9.8007 225.332 5.87005 227.621C0.859424 230.54 -1.87808 232.453 -6.09054 236.478C-8.78695 239.054 -10.197 240.634 -12.4562 243.612M-12.4562 243.612C-10.5644 237.399 -9.15525 233.976 -6.12656 228.233C-3.58221 223.408 -1.8275 220.871 1.34762 216.444C5.65802 210.434 8.75006 207.602 13.5345 201.973C19.458 195.003 23.6549 191.789 28.801 184.212C33.2713 177.631 39.5055 165.391 39.5055 165.391M-12.4562 243.612C-11.9891 235.544 -11.3991 231.005 -9.7865 223.075C-8.0727 214.646 -7.40709 209.678 -3.77495 201.878C-0.144126 194.081 3.09975 190.282 8.56284 183.664C12.9127 178.394 15.1703 175.062 20.6743 171.064C24.1092 168.569 26.7345 168.291 30.0998 165.698C34.4379 162.357 36.4522 159.827 39.5449 155.275C40.9996 153.134 43.6575 149.203 43.6575 149.203"
          stroke="#AD8757" stroke-linecap="round">
        <animate attributeName="stroke" values="#AD8757; #667C74;#AD8757; " dur="10s" repeatCount="indefinite"/>
    </path>
    <path d="M8.5655 270.413C8.5655 270.413 13.9423 268.597 17.5023 268.033C20.9318 267.489 22.9 267.592 26.3636 267.523C30.6782 267.438 33.0916 267.706 37.4026 267.823C42.4321 267.959 45.2626 267.852 50.2814 268.172C53.8012 268.397 55.7462 268.896 59.2739 268.978C64.7655 269.106 67.9563 269.167 73.317 267.86C77.7202 266.786 80.0891 265.68 84.1691 263.657C87.3798 262.066 89.5243 261.533 92.0925 259.001C94.7689 256.362 95.4634 254.135 97.0315 250.703C98.0911 248.384 98.6218 247.039 99.3043 244.582C100.719 239.489 101.024 236.373 100.583 231.126C100.208 226.659 98.7349 224.395 97.9008 219.999C97.4293 217.514 97.2722 216.1 96.8694 213.601M8.5655 270.413C8.5655 270.413 12.7957 265.398 16.2266 263.126C20.3041 260.426 23.0774 259.542 27.8297 258.57C31.0301 257.915 32.8907 257.909 36.1466 257.858C39.2396 257.81 40.9579 258.247 44.0503 258.26C46.4991 258.27 52.2279 259.644 54.6762 259.672C57.9861 259.711 59.2722 259.97 62.5798 260.074C65.2387 260.158 65.5408 260.054 67.9682 258.909C74.7274 255.719 73.9322 255.969 78.3512 252.633C80.8172 250.77 81.9921 249.443 84.097 247.167C87.2792 243.727 89.1905 241.764 91.3666 237.598C94.0173 232.523 94.2186 229.099 95.3657 223.49C96.1488 219.662 96.2822 217.463 96.8694 213.601M8.5655 270.413C8.5655 270.413 9.61433 266.18 10.5005 263.533C11.0892 261.775 11.4205 260.785 12.1534 259.081C12.983 257.153 13.3423 255.983 14.5573 254.275C16.0576 252.166 19.3455 249.721 19.3455 249.721C19.3455 249.721 24.1747 246.883 27.2689 245.064M96.8694 213.601C96.4667 211.102 93.7359 204.522 93.7359 204.522C93.7359 204.522 93.1719 209.379 92.5521 211.048C90.85 215.632 90.0789 219.172 86.9176 222.887C84.8357 225.333 83.3424 226.468 80.6274 228.15C77.0237 230.381 74.5479 230.732 70.5263 231.998C67.8641 232.835 66.3378 233.185 63.636 233.872C59.9521 234.808 57.8431 235.134 54.1548 236.05C50.6508 236.921 48.6969 237.457 45.218 238.431C41.1252 239.577 34.7791 241.521 34.7791 241.521C34.7791 241.521 30.2019 243.68 27.2689 245.064M96.8694 213.601C95.5125 216.93 94.8818 218.853 93.3947 222.125C91.7533 225.738 90.7997 227.761 88.7934 231.181C87.2297 233.847 86.5375 235.518 84.4742 237.809C82.882 239.578 82.2922 240.53 80.4372 242.009C77.0859 244.682 74.8497 246.614 70.805 247.931C68.5663 248.66 67.2 248.605 64.8723 248.894C62.1404 249.234 60.5927 249.593 57.8507 249.453C55.3136 249.324 53.941 248.819 51.4491 248.343C48.297 247.741 46.5662 247.229 43.4142 246.626C40.9223 246.15 39.535 245.802 37.0125 245.516C34.6569 245.249 33.3195 245.256 30.9486 245.164C29.5124 245.108 28.7065 245.086 27.2689 245.064"
          stroke="#AD8757" stroke-linecap="round">
        <animate attributeName="stroke" values="#AD8757; #667C74;#AD8757; " dur="10s" repeatCount="indefinite"/>
    </path>
    <path d="M188.445 331.501L199.763 354.407M188.012 442.784L188.93 451.989L191.691 442.883C191.691 442.883 194.856 434.783 197.195 429.73C199.646 424.433 201.604 421.749 203.993 416.424C207.125 409.445 209.729 405.625 210.811 398.06C211.898 390.47 210.989 385.991 209.388 378.535C207.71 370.718 202.239 359.417 202.239 359.417L199.763 354.407M188.012 442.784L189.029 426.698C189.029 426.698 189.93 417.479 191.472 411.775C192.863 406.629 194.605 404.055 196.224 398.976C198.206 392.756 199.159 389.197 200.376 382.788C201.351 377.652 202.203 374.75 202.2 369.534C202.195 363.534 199.763 354.407 199.763 354.407M188.012 442.784C188.012 442.784 183.337 434.298 181.594 428.37C180.37 424.207 179.894 421.778 179.456 417.445M199.763 354.407C199.763 354.407 198.108 360.892 196.493 364.883C194.634 369.476 192.762 371.544 190.521 375.962C188.526 379.895 187.309 382.106 185.507 386.132C184.271 388.89 183.931 390.555 182.821 393.366C181.285 397.253 180.379 399.474 179.646 403.585C178.694 408.924 179.53 412.032 179.456 417.445M199.763 354.407L191.856 365.694L185.959 374.902C185.959 374.902 180.737 382.966 178.954 388.764C177.35 393.979 176.9 397.133 176.924 402.574C176.95 408.482 178.467 411.637 179.456 417.445"
          stroke="#AD8757" stroke-linecap="round">
        <animate attributeName="stroke" values="#AD8757; #667C74;#AD8757; " dur="10s" repeatCount="indefinite"/>
    </path>
    <path d="M108.225 228.898L122.763 240.628M265.955 272.897C265.955 272.897 254.377 278.344 246.504 280.239C235.165 282.967 228.331 282.98 216.784 281.868C197.117 279.975 187.504 272.264 169.008 265.396C155.614 260.423 148.114 258.272 135.124 251.549C129.417 248.596 122.763 240.628 122.763 240.628M265.955 272.897C265.955 272.897 251.656 266.533 242.001 264.003C231.242 261.184 224.924 260.52 213.803 259.866C205.335 259.368 200.54 260.394 192.063 260.026C184.078 259.679 171.694 258.162 171.694 258.162C171.694 258.162 156.695 256.121 147.589 253.011C137.339 249.511 122.763 240.628 122.763 240.628M265.955 272.897C265.955 272.897 259.469 263.912 254.355 259.092C249.692 254.697 241.309 249.183 241.309 249.183C241.309 249.183 231.978 244.588 225.521 243.321C216.135 241.478 210.518 243.197 200.984 244.342C191.751 245.45 186.824 247.859 177.591 248.954C166.416 250.279 159.901 251.434 148.829 249.672C138.179 247.978 122.763 240.628 122.763 240.628"
          stroke="#AD8757" stroke-linecap="round">
        <animate attributeName="stroke" values="#AD8757; #667C74;#AD8757; " dur="10s" repeatCount="indefinite"/>
    </path>
    <path d="M266.161 272.34C266.161 272.34 252.706 257.326 242.191 250.143C236.118 245.995 225.803 240.893 225.803 240.893C225.803 240.893 217.823 236.56 212.193 235.84C206.151 235.066 202.57 236.085 196.648 237.666C191.956 238.919 185.045 242.223 185.045 242.223L169.893 247.995C169.893 247.995 158.05 250.956 150.462 250.279C140.734 249.411 124.462 241.892 124.462 241.892L134.06 242.734M250.764 183.674L236.793 201.282C236.793 201.282 228.33 212.833 221.189 218.284C215.35 222.742 212.253 226.191 205.811 229.671C198.949 233.378 194.277 233.621 187.111 236.658C181.412 239.074 178.087 240.118 172.166 241.874C165.359 243.893 161.559 245.725 154.499 246.079C146.401 246.485 134.06 242.734 134.06 242.734M250.764 183.674C250.764 183.674 240.996 188.602 235.124 192.431C229.139 196.333 226.137 199.056 220.497 203.463C215.609 207.283 213.138 209.788 208.123 213.433C203.467 216.817 200.601 218.326 195.825 221.531C189.94 225.479 187.171 228.621 180.86 231.805C176.505 234.002 169.257 236.361 169.257 236.361L154.181 240.262L134.06 242.734M250.764 183.674L214.21 190.365M134.06 242.734L148.737 238.241M148.737 238.241C148.737 238.241 157.221 236.236 162.18 233.734C171.254 229.155 174.618 223.689 181.671 216.275C187.262 210.398 186.147 205.742 192.431 200.641C199.016 195.296 214.21 190.365 214.21 190.365M148.737 238.241C148.737 238.241 152.218 236.639 154.201 235.204C157.63 232.722 158.746 230.375 161.524 227.158C166.925 220.906 168.625 216.215 174.538 210.461C181.192 203.984 185.582 200.785 193.877 196.746C201.384 193.09 214.21 190.365 214.21 190.365"
          stroke="#AD8757" stroke-linecap="round">
        <animate attributeName="stroke" values="#AD8757; #667C74;#AD8757; " dur="10s" repeatCount="indefinite"/>
    </path>
    <path d="M161.98 302.678C161.98 302.678 187.068 319.147 203.597 325.729C219.121 331.911 228.82 337.584 245.405 334.919C259.578 332.642 265.713 325.102 278.318 318.012C288.136 312.491 303.046 303.131 303.046 303.131M161.98 302.678C161.98 302.678 176.966 307.107 185.202 306.868C191.761 306.678 201.574 302.815 201.574 302.815C201.574 302.815 211.36 297.988 217.889 295.576C224.803 293.022 228.65 290.149 235.97 290.258C244.153 290.38 255.568 297.535 255.568 297.535M161.98 302.678L187.642 310.307M303.046 303.131L272.819 312.804L244.037 318.581C244.037 318.581 226.479 322.154 215.407 320.615C203.939 319.022 187.642 310.307 187.642 310.307M303.046 303.131C303.046 303.131 291.105 304.587 283.484 304.1C272.291 303.385 255.568 297.535 255.568 297.535M255.568 297.535C255.568 297.535 244.612 295.142 237.583 295.923C229.38 296.834 225.065 299.433 217.588 303.062C212.462 305.55 210.398 308.799 204.951 310.402C198.433 312.32 187.642 310.307 187.642 310.307"
          stroke="#AD8757" stroke-linecap="round">
        <animate attributeName="stroke" values="#AD8757; #667C74;#AD8757; " dur="10s" repeatCount="indefinite"/>
    </path>
    <path d="M132.887 265.916C132.887 265.916 137.4 279.483 137.501 288.524C137.609 298.138 136.85 304.598 133.178 313.514M133.178 313.514C138.841 315.8 141.587 317.877 144.385 323.373C146.489 327.507 147.217 330.385 146.861 335.057C146.509 339.672 145.257 342.307 142.728 346.187C140.353 349.832 138.646 351.96 134.861 354.03C131.675 355.772 129.518 356.473 125.924 356.411C121.605 356.336 118.364 355.624 114.623 353.481C110.886 351.342 109.687 350.011 107.358 346.352C104.496 341.854 103.942 337.396 104.62 332.038C105.143 327.903 105.905 325.402 108.339 322.021C110.52 318.992 112.359 317.663 115.587 315.847C118.432 314.247 120.255 313.698 123.435 313.062C127.049 312.34 129.543 313.028 133.178 313.514Z"
          stroke="#AD8757">
        <animate attributeName="stroke" values="#AD8757; #667C74;#AD8757; " dur="10s" repeatCount="indefinite"/>
    </path>
    <path d="M75.0167 173.484C75.0167 173.484 85.374 182.121 93.2764 185.265C101.679 188.608 107.063 189.548 116.154 189.259M116.154 189.259C116.21 195.12 117.639 198.848 121.5 203.218C124.405 206.505 126.68 208.131 130.905 209.389C135.078 210.631 137.477 211.282 141.754 210.32C145.772 209.416 148.573 207.714 151.694 205.012C154.32 202.738 155.679 201.036 156.862 197.785C158.283 193.879 158.214 190.724 157.622 186.638C157.03 182.558 156.275 181.031 153.864 177.703C150.901 173.612 147.738 171.611 142.8 170.411C138.99 169.485 136.532 169.325 132.726 170.371C129.316 171.307 127.515 172.511 124.81 174.799C122.425 176.815 121.315 178.268 119.662 180.911C117.784 183.915 116.979 185.829 116.154 189.259Z"
          stroke="#AD8757">
        <animate attributeName="stroke" values="#AD8757; #667C74;#AD8757; " dur="10s" repeatCount="indefinite"/>
    </path>
    <path d="M129.154 349.379C129.154 349.379 127.024 346.041 124.874 345.891C122.785 345.744 120.162 348.573 120.162 348.573"
          stroke="#AD8757" stroke-linecap="round">
        <animate attributeName="stroke" values="#AD8757; #667C74;#AD8757; " dur="10s" repeatCount="indefinite"/>
    </path>
    <path d="M149.099 187.569C149.099 187.569 146.252 190.379 146.486 192.555C146.715 194.671 149.909 196.71 149.909 196.71"
          stroke="#AD8757" stroke-linecap="round">
        <animate attributeName="stroke" values="#AD8757; #667C74;#AD8757; " dur="10s" repeatCount="indefinite"/>
    </path>
    <path d="M-0.057839 4.296e-05C-0.057839 4.296e-05 18.3539 60.0508 35.482 96.145C44.9568 116.111 49.6482 128.884 60.0849 148.337C70.5216 167.791 77.9265 176.652 88.9315 195.773C109.775 231.989 121.66 252.47 147.396 285.233C172.352 317.004 218.515 362.295 218.515 362.295"
          stroke="#AD8757" stroke-linecap="round">
        <animate attributeName="stroke" values="#AD8757; #667C74;#AD8757; " dur="10s" repeatCount="indefinite"/>
    </path>
    <path d="M218.722 361.738C218.722 361.738 233.786 369.549 243.558 371.593C261.259 375.295 271.813 369.818 289.911 368.54C309.83 367.135 340.902 364.677 340.902 364.677M218.722 361.738C218.722 361.738 236.52 362.826 247.277 361.576C261.716 359.898 283.7 353.57 283.7 353.57C283.7 353.57 302.513 349.251 314.17 351.586C325.571 353.87 340.902 364.677 340.902 364.677M218.722 361.738C218.722 361.738 238.811 355.419 251.203 351.003C266.081 345.7 273.79 338.512 289.485 337.989C302.572 337.552 310.99 338.298 322.169 345.058C331.203 350.521 340.902 364.677 340.902 364.677"
          stroke="#AD8757">
        <animate attributeName="stroke" values="#AD8757; #667C74;#AD8757; " dur="10s" repeatCount="indefinite"/>
    </path>
    <path d="M219.604 362.699C219.604 362.699 238.5 346.238 253.082 340.936C268.183 335.444 294.46 337.936 294.46 337.936"
          stroke="#AD8757">
        <animate attributeName="stroke" values="#AD8757; #667C74;#AD8757; " dur="10s" repeatCount="indefinite"/>
    </path>
    <path d="M218.515 362.295C218.515 362.295 254.468 379.344 266.384 390.198C274.978 398.027 279.964 402.968 284.965 413.561C289.987 424.196 291.324 443.15 291.324 443.15M218.515 362.295C218.515 362.295 241.246 386.863 249.937 396.123C259.006 405.786 267.422 407.654 275.953 417.813C283.372 426.649 291.324 443.15 291.324 443.15M218.515 362.295C218.515 362.295 233.66 383.212 236.871 391.272C240.18 399.576 241.498 404.871 247.287 411.602C253.848 419.231 260.46 420.046 268.63 425.859C277.705 432.315 291.324 443.15 291.324 443.15"
          stroke="#AD8757">
        <animate attributeName="stroke" values="#AD8757; #667C74;#AD8757; " dur="10s" repeatCount="indefinite"/>
    </path>
    <path d="M172.022 314.005C173.429 318.237 175.627 324.842 175.627 324.842L178.213 334.034C178.213 334.034 178.88 340.261 179.123 343.87C179.409 348.108 179.535 350.497 179.433 354.749C179.334 358.847 179.559 361.218 178.65 365.223C177.364 370.891 175.654 373.924 172.393 378.73C171.113 380.616 170.314 381.623 168.818 383.339C165.606 387.024 163.511 388.9 159.51 391.676M159.51 391.676C156.196 393.413 154.5 394.761 151.024 396.124C145.751 398.193 142.503 399.053 136.873 399.102C131.999 399.144 129.31 398.205 124.58 397.07C119.708 395.902 117.05 394.932 112.362 393.167C108.099 391.562 105.923 390.13 101.649 388.556C95.8699 386.429 87.4513 383.285 87.4513 383.285C87.4513 383.285 93.2798 383.934 97.5612 384.506C100.752 384.932 102.478 385.531 105.618 386.231C111.21 387.476 114.28 388.455 119.888 389.629C126.222 390.956 129.801 391.594 136.209 392.523C142.001 393.363 145.288 395.109 151.098 394.252C154.488 393.752 156.225 392.682 159.51 391.676Z"
          stroke="#AD8757" stroke-linecap="round">
        <animate attributeName="stroke" values="#AD8757; #667C74;#AD8757; " dur="10s" repeatCount="indefinite"/>
    </path>
    <path d="M158.565 391.959C158.565 391.959 153.343 392.063 150.117 391.355C147.014 390.674 145.29 390.034 142.495 388.525M142.495 388.525C146.209 387.406 148.259 386.438 151.507 384.273C156.133 381.189 157.928 378.352 161.497 374.051C164.864 369.993 166.641 367.581 169.309 363.021C171.66 359.002 172.703 356.582 174.53 352.296C176.257 348.244 177.922 346.089 178.456 341.722C178.958 337.611 177.406 331.201 177.406 331.201C177.406 331.201 175.657 337.88 174.025 341.977C172.906 344.785 172.181 346.324 170.795 349.009C168.626 353.209 167.466 355.675 164.485 359.33C162.391 361.896 160.937 363.085 158.532 365.352C156.428 367.336 155.126 368.309 152.993 370.261C150.328 372.698 148.997 374.248 146.29 376.637C142.21 380.236 139.802 382.131 135.352 385.24M142.495 388.525C139.706 387.242 138.142 386.523 135.352 385.24M128.209 381.955C128.209 381.955 121.951 381.294 117.921 381.301C114.458 381.306 112.501 381.354 109.06 381.81C105.612 382.267 103.774 383.148 100.33 383.634C96.389 384.191 90.1731 384.296 90.1731 384.296L86.7 383.639C86.7 383.639 92.2461 381.756 95.8434 380.702C98.5207 379.918 102.734 378.828 102.734 378.828C102.734 378.828 109.381 377.55 113.642 377.812C119.555 378.175 128.209 381.955 128.209 381.955ZM128.209 381.955C128.209 381.955 132.563 383.957 135.352 385.24"
          stroke="#AD8757" stroke-linecap="round">
        <animate attributeName="stroke" values="#AD8757; #667C74;#AD8757; " dur="10s" repeatCount="indefinite"/>
    </path>

</svg>
