<svg width="494" height="538" viewBox="0 0 494 538" fill="none" xmlns="http://www.w3.org/2000/svg">
<path d="M43.4129 531.031C43.4129 531.031 39.1085 521.704 38.3928 515.455C37.6419 508.898 40.0091 505.589 40.0811 499.084C40.1083 496.634 39.937 492.785 39.937 492.785M39.937 492.785C39.937 492.785 42.7225 487.347 43.7603 483.489C44.8448 479.458 45.4552 477.246 46.2131 473.092C47.0427 468.545 47.8575 466.122 48.9112 461.656C49.4859 459.22 50.0512 457.934 50.3829 455.418C50.8387 451.959 51.6093 450.219 51.3497 446.713C51.0901 443.206 51.0581 440.916 50.3256 437.233C49.4577 432.868 48.2309 430.632 46.9356 426.264C45.1364 420.196 43.9411 416.801 41.2951 411.013C39.3326 406.72 37.5059 404.653 35.669 400.309C34.803 398.26 33.6638 394.987 33.6638 394.987M39.937 492.785C39.937 492.785 38.4776 486.336 37.5424 482.203M33.6638 394.987C33.6638 394.987 34.0178 399.263 34.183 402C34.4144 405.835 34.4898 407.982 34.5867 411.807C34.7219 417.146 34.5627 420.113 34.6296 425.445C34.9068 447.536 35.5466 460.002 37.5424 482.203M33.6638 394.987C33.6638 394.987 28.1173 399.315 26.2338 403.446C24.8861 406.402 23.9675 408.1 23.2761 411.376C22.454 415.272 22.6573 417.773 22.4391 421.834C22.1048 428.057 23.779 431.687 24.6027 438.002C25.2114 442.667 25.2088 445.305 26.1317 449.949C27.131 454.977 28.0178 457.765 29.6515 462.671C31.1505 467.172 32.2297 469.627 34.0369 474.027C35.356 477.24 36.1735 479.011 37.5424 482.203" stroke="#D4B8A3" stroke-linecap="round"/>
<path d="M24.6029 438.002C24.6029 438.002 19.0572 424.836 15.096 418.408C9.7224 409.688 6.04965 405.189 -0.628588 397.528C-5.16912 392.32 -7.23309 388.516 -12.8477 384.825C-17.8696 381.523 -21.4781 382.002 -26.7838 379.399C-33.5473 376.08 -37.3129 373.845 -43.3454 368.977C-47.2069 365.862 -49.2776 363.924 -52.6937 360.229M-52.6937 360.229C-49.013 368.241 -46.5369 372.617 -41.5712 379.885C-37.3996 385.99 -34.6969 389.156 -29.8426 394.668C-23.2526 402.15 -18.8515 405.562 -11.7664 412.49C-2.99451 421.068 2.84027 424.865 10.7965 434.329C17.708 442.551 28.0214 458.063 28.0214 458.063M-52.6937 360.229C-50.3441 370.848 -48.6224 376.787 -44.9039 387.101C-40.9521 398.062 -39.0435 404.56 -32.8872 414.483C-26.733 424.403 -21.9331 429.077 -13.8011 437.239C-7.32618 443.738 -3.83398 447.901 3.77023 452.594C8.51577 455.523 11.7837 455.608 16.4656 458.673C22.501 462.623 25.5193 465.752 30.3005 471.438C32.5494 474.112 36.6625 479.023 36.6625 479.023" stroke="#D4B8A3" stroke-linecap="round"/>
<path d="M-32.9284 322.518C-32.9284 322.518 -25.9606 324.34 -21.488 324.701C-17.1794 325.05 -14.7981 324.702 -10.5526 324.418C-5.26397 324.066 -2.37529 323.451 2.86433 322.831C8.97722 322.108 12.458 321.944 18.5174 320.979C22.7669 320.303 25.0324 319.432 29.323 318.943C36.0022 318.181 39.8858 317.756 46.7217 318.906C52.3364 319.851 55.4738 321.058 60.903 323.292C65.1755 325.051 67.9123 325.524 71.6075 328.595C75.4585 331.796 76.7977 334.666 79.4698 339.035C81.2754 341.988 82.2204 343.71 83.5957 346.885C86.4467 353.467 87.5069 357.555 88.1252 364.541C88.6518 370.489 87.3519 373.642 87.3026 379.546C87.2747 382.883 87.3948 384.771 87.4538 388.118M-32.9284 322.518C-32.9284 322.518 -26.6557 328.693 -21.9643 331.327C-16.3885 334.458 -12.8063 335.328 -6.78747 336.101C-2.73407 336.621 -0.460244 336.428 3.52764 336.144C7.316 335.874 9.31837 335.111 13.0926 334.76C16.0812 334.482 22.7753 332.047 25.7595 331.745C29.7938 331.337 31.3075 330.856 35.3243 330.361C38.5533 329.963 38.9453 330.068 42.1627 331.321C51.1216 334.809 50.0952 334.564 56.2284 338.5C59.651 340.696 61.3787 342.325 64.4515 345.107C69.0969 349.314 71.8641 351.703 75.4407 356.977C79.7974 363.402 80.7985 367.91 83.4363 375.202C85.2371 380.181 85.8849 383.074 87.4538 388.118M-32.9284 322.518C-32.9284 322.518 -30.7138 328.002 -29.0478 331.407C-27.9409 333.669 -27.3179 334.942 -26.0472 337.116C-24.6087 339.577 -23.9118 341.085 -22.0511 343.213C-19.7537 345.839 -15.1986 348.719 -15.1986 348.719C-15.1986 348.719 -8.67442 351.951 -4.49405 354.022M87.4538 388.118C87.5129 391.466 85.6286 400.462 85.6286 400.462C85.6286 400.462 83.8688 394.101 82.7436 391.96C79.6537 386.081 77.9312 381.483 73.251 376.913C70.1688 373.903 68.0945 372.562 64.4076 370.632C59.5139 368.069 56.4126 367.872 51.2216 366.633C47.7853 365.813 45.8439 365.514 42.3925 364.898C37.6867 364.058 35.0388 363.854 30.3318 363.04C25.8601 362.267 23.3554 361.769 18.8915 360.856C13.64 359.783 5.46029 357.897 5.46029 357.897C5.46029 357.897 -0.606639 355.535 -4.49405 354.022M87.4538 388.118C85.0623 383.862 83.868 381.388 81.33 377.22C78.5285 372.621 76.9176 370.048 73.7129 365.741C71.2151 362.384 70.0012 360.249 66.9758 357.442C64.6412 355.275 63.7107 354.079 61.1189 352.323C56.4362 349.151 53.2789 346.838 48.0483 345.532C45.1531 344.809 43.4965 345.029 40.5897 344.898C37.1782 344.744 35.2086 344.436 31.8904 344.917C28.82 345.361 27.2548 346.177 24.3163 347.076C20.5993 348.213 18.5982 349.077 14.8811 350.213C11.9426 351.112 10.325 351.722 7.30705 352.373C4.48888 352.98 2.85373 353.115 -0.0217558 353.493C-1.76368 353.721 -2.74312 353.837 -4.49405 354.022" stroke="#D4B8A3" stroke-linecap="round"/>
<path d="M173.304 222.32L182.076 190.807M148.234 75.2022L147.326 62.929L152.706 74.6731C152.706 74.6731 158.358 85.0442 162.329 91.474C166.49 98.214 169.474 101.552 173.567 108.337C178.931 117.228 182.954 121.998 185.944 131.886C188.944 141.806 188.823 147.828 188.512 157.86C188.185 168.379 183.995 183.913 183.995 183.913L182.076 190.807M148.234 75.2022L153.023 96.3649C153.023 96.3649 156.158 108.458 159.298 115.836C162.132 122.491 164.827 125.706 167.925 132.249C171.718 140.26 173.667 144.864 176.566 153.209C178.889 159.894 180.571 163.641 181.716 170.539C183.034 178.474 182.076 190.807 182.076 190.807M148.234 75.2022C148.234 75.2022 144.396 86.9279 143.574 94.9561C142.997 100.593 142.952 103.857 143.371 109.635M182.076 190.807C182.076 190.807 178.625 182.409 175.772 177.306C172.489 171.432 169.746 168.899 166.035 163.298C162.731 158.313 160.756 155.52 157.667 150.391C155.551 146.877 154.768 144.712 152.791 141.114C150.058 136.14 148.462 133.301 146.66 127.943C144.32 120.986 144.656 116.784 143.371 109.635M182.076 190.807L169.929 176.734L160.697 165.193C160.697 165.193 152.541 155.093 149.084 147.617C145.975 140.894 144.729 136.771 143.559 129.573C142.288 121.758 143.445 117.421 143.371 109.635" stroke="#D4B8A3" stroke-linecap="round"/>
<path d="M97.9499 366.663L113.12 349.582M280.897 291.455C280.897 291.455 265.555 285.5 255.52 283.845C241.07 281.461 232.72 282.181 218.862 284.897C195.258 289.523 185.218 300.759 164.141 311.837C148.878 319.859 140.192 323.513 125.809 333.806C119.49 338.327 113.12 349.582 113.12 349.582M280.897 291.455C280.897 291.455 264.836 301.414 253.601 305.801C241.082 310.69 233.512 312.251 220.073 314.316C209.84 315.888 203.757 315.049 193.485 316.451C183.809 317.771 169.017 321.114 169.017 321.114C169.017 321.114 151.147 325.432 140.712 330.527C128.963 336.262 113.12 349.582 113.12 349.582M280.897 291.455C280.897 291.455 274.957 304.037 269.773 310.963C265.048 317.278 256.024 325.475 256.024 325.475C256.024 325.475 245.641 332.558 238.034 334.931C226.976 338.381 219.737 336.714 207.839 336.229C196.318 335.76 189.769 333.106 178.25 332.655C164.309 332.109 156.097 331.284 142.962 334.808C130.328 338.198 113.12 349.582 113.12 349.582" stroke="#D4B8A3" stroke-linecap="round"/>
<path d="M281.272 292.169C281.272 292.169 268.15 313.477 256.89 324.11C250.388 330.251 238.914 338.112 238.914 338.112C238.914 338.112 230.123 344.703 223.405 346.263C216.195 347.937 211.598 346.977 204.016 345.525C198.009 344.374 188.839 340.751 188.839 340.751L169.06 334.753C169.06 334.753 153.942 332.116 144.823 333.83C133.134 336.028 114.916 347.728 114.916 347.728L126.454 345.578M282.02 411.086L261.073 389.308C261.073 389.308 248.188 374.947 238.264 368.508C230.15 363.244 225.606 359.016 216.971 355.11C207.772 350.948 202.012 351.13 192.59 347.887C185.096 345.308 180.805 344.286 173.186 342.603C164.427 340.667 159.381 338.654 150.681 338.949C140.699 339.286 126.454 345.578 126.454 345.578M282.02 411.086C282.02 411.086 269.002 405.623 260.986 401.194C252.815 396.679 248.547 393.402 240.688 388.182C233.875 383.658 230.305 380.613 223.376 376.334C216.943 372.361 213.109 370.674 206.569 366.952C198.51 362.365 194.435 358.51 186.026 354.98C180.222 352.545 170.849 350.207 170.849 350.207L151.575 346.675L126.454 345.578M282.02 411.086L235.898 406.183M126.454 345.578L145.371 349.936M145.371 349.936C145.371 349.936 156.176 351.671 162.784 354.445C174.876 359.521 180.19 366.386 190.44 375.43C198.565 382.598 198.23 388.877 207.03 394.943C216.251 401.301 235.898 406.183 235.898 406.183M145.371 349.936C145.371 349.936 149.976 351.679 152.714 353.363C157.45 356.275 159.33 359.258 163.433 363.212C171.408 370.897 174.52 376.917 183.01 383.889C192.566 391.736 198.633 395.492 209.655 399.939C219.63 403.963 235.898 406.183 235.898 406.183" stroke="#D4B8A3" stroke-linecap="round"/>
<path d="M147.335 263.292C147.335 263.292 174.347 238.806 193.083 228.318C210.681 218.467 221.276 209.918 242.12 211.652C259.933 213.134 269.09 222.443 286.049 230.458C299.257 236.701 319.533 247.469 319.533 247.469M147.335 263.292C147.335 263.292 164.663 255.818 174.775 255.245C182.828 254.789 195.665 258.838 195.665 258.838C195.665 258.838 208.682 264.166 217.189 266.651C226.197 269.282 231.529 272.667 240.445 271.732C250.413 270.687 262.778 259.994 262.778 259.994M147.335 263.292L176.997 250.434M319.533 247.469L280.48 237.939L244.053 233.405C244.053 233.405 221.82 230.575 208.635 233.805C194.98 237.151 176.997 250.434 176.997 250.434M319.533 247.469C319.533 247.469 304.627 246.833 295.426 248.299C281.913 250.452 262.778 259.994 262.778 259.994M262.778 259.994C262.778 259.994 249.924 264.341 241.167 264.067C230.947 263.747 225.103 260.776 215.17 256.783C208.361 254.046 205.123 249.972 198.118 248.441C189.732 246.608 176.997 250.434 176.997 250.434" stroke="#D4B8A3" stroke-linecap="round"/>
<path d="M119.909 315.049C119.909 315.049 122.429 296.619 120.559 284.652C118.57 271.926 116.218 263.465 109.768 252.071M109.768 252.071C116.18 248.437 119.076 245.394 121.281 237.823C122.939 232.13 123.194 228.245 121.729 222.105C120.281 216.04 118.172 212.69 114.227 207.832C110.522 203.269 107.967 200.638 102.888 198.309C98.6134 196.349 95.8233 195.655 91.4476 196.125C86.1896 196.69 82.3878 197.982 78.2904 201.219C74.1987 204.451 73.0272 206.341 70.9902 211.431C68.4862 217.688 68.7924 223.644 70.8021 230.656C72.3531 236.068 73.8348 239.293 77.5535 243.501C80.8848 247.271 83.4247 248.831 87.7675 250.884C91.5954 252.693 93.9435 253.223 97.9671 253.72C102.541 254.285 105.435 253.105 109.768 252.071Z" stroke="#D4B8A3"/>
<path d="M69.6098 443.529C69.6098 443.529 80.3555 430.989 89.3141 425.979C98.8403 420.651 105.208 418.827 116.376 418.227M116.376 418.227C115.153 410.471 116.075 405.386 119.828 399.19C122.65 394.531 125.071 392.135 129.954 390.016C134.776 387.922 137.563 386.802 143 387.613C148.106 388.375 151.903 390.323 156.31 393.56C160.02 396.284 162.054 398.388 164.216 402.559C166.813 407.571 167.425 411.752 167.602 417.218C167.779 422.678 167.193 424.779 164.983 429.44C162.266 435.17 158.844 438.158 153.078 440.277C148.628 441.913 145.662 442.39 140.782 441.418C136.41 440.547 133.946 439.149 130.137 436.416C126.78 434.007 125.103 432.206 122.502 428.889C119.545 425.119 118.141 422.675 116.376 418.227Z" stroke="#D4B8A3"/>
<path d="M96.944 205.076C96.944 205.076 95.0787 209.72 92.486 210.151C89.9663 210.57 86.1383 207.112 86.1383 207.112" stroke="#D4B8A3" stroke-linecap="round"/>
<path d="M156.987 416.908C156.987 416.908 152.89 413.499 152.697 410.595C152.509 407.773 155.961 404.731 155.961 404.731" stroke="#D4B8A3" stroke-linecap="round"/>
<path d="M16.1718 681.054C16.1718 681.054 25.4171 599.653 38.3777 550.072C45.5471 522.646 48.4605 505.248 56.9178 478.396C65.375 451.543 72.4653 439.026 81.69 412.551C99.1614 362.409 109.161 334.041 133.37 287.937C156.845 243.228 203.241 178.352 203.241 178.352" stroke="#D4B8A3" stroke-linecap="round"/>
<path d="M203.616 179.065C203.616 179.065 220.292 167.11 231.777 163.353C252.581 156.547 266.68 162.651 289.066 162.387C313.704 162.096 352.197 161.993 352.197 161.993M203.616 179.065C203.616 179.065 225.114 175.705 238.528 176.198C256.534 176.859 284.78 182.854 284.78 182.854C284.78 182.854 308.712 186.535 322.434 182.19C335.856 177.939 352.197 161.993 352.197 161.993M203.616 179.065C203.616 179.065 229.546 185.254 245.655 189.757C264.997 195.163 275.998 203.837 295.283 202.836C311.363 202.001 321.481 200.105 333.643 189.96C343.473 181.76 352.197 161.993 352.197 161.993" stroke="#D4B8A3"/>
<path d="M204.482 177.699C204.482 177.699 231.19 197.428 250.17 202.867C269.826 208.499 301.371 202.368 301.371 202.368" stroke="#D4B8A3"/>
<path d="M203.241 178.352C203.241 178.352 243.393 151.924 255.553 136.284C264.324 125.004 269.324 117.932 273.097 103.384C276.885 88.7773 274.339 63.5681 274.339 63.5681M203.241 178.352C203.241 178.352 225.586 143.408 234.158 130.225C243.105 116.466 252.973 113.089 261.152 98.7328C268.265 86.2474 274.339 63.5681 274.339 63.5681M203.241 178.352C203.241 178.352 217.125 149.055 219.27 138.05C221.48 126.711 221.922 119.566 227.508 110.04C233.84 99.2429 241.736 97.4518 250.433 88.8835C260.094 79.3656 274.339 63.5681 274.339 63.5681" stroke="#D4B8A3"/>
<path d="M157.103 247.229C157.889 241.481 159.116 232.509 159.116 232.509L160.248 220.074C160.248 220.074 159.689 211.767 159.191 206.969C158.605 201.333 158.232 198.16 157.17 192.548C156.146 187.139 155.897 183.979 153.904 178.781C151.084 171.425 148.325 167.598 143.283 161.595C141.304 159.238 140.105 157.993 137.9 155.885C133.164 151.359 130.192 149.103 124.693 145.864M124.693 145.864C120.262 143.925 117.894 142.326 113.348 140.898C106.451 138.731 102.294 137.945 95.4063 138.488C89.4443 138.958 86.3669 140.49 80.8405 142.5C75.1473 144.571 72.114 146.141 66.7778 148.981C61.9256 151.564 59.5829 153.693 54.7095 156.235C48.1206 159.672 38.5314 164.738 38.5314 164.738C38.5314 164.738 45.5071 163.251 50.6103 162.032C54.414 161.124 56.389 160.145 60.0708 158.881C66.626 156.631 70.16 155.005 76.7502 152.847C84.1946 150.409 88.4251 149.179 96.0462 147.259C102.935 145.523 106.565 142.86 113.851 143.366C118.101 143.661 120.459 144.888 124.693 145.864Z" stroke="#D4B8A3" stroke-linecap="round"/>
<path d="M123.476 145.593C123.476 145.593 117.075 146.018 113.291 147.303C109.651 148.539 107.687 149.571 104.606 151.868M104.606 151.868C109.389 152.948 112.106 154.005 116.551 156.519C122.88 160.098 125.699 163.656 131.006 168.958C136.014 173.961 138.716 176.96 142.98 182.701C146.738 187.762 148.546 190.851 151.722 196.322C154.725 201.494 157.234 204.163 158.849 209.881C160.369 215.263 159.887 223.907 159.887 223.907C159.887 223.907 156.278 215.264 153.381 210.022C151.395 206.43 150.17 204.472 147.885 201.071C144.31 195.751 142.35 192.615 137.902 188.103C134.779 184.936 132.74 183.52 129.303 180.782C126.296 178.386 124.491 177.239 121.455 174.888C117.663 171.953 115.695 170.047 111.862 167.18C106.086 162.86 102.726 160.615 96.6058 156.983M104.606 151.868C101.481 153.866 99.7299 154.986 96.6058 156.983M88.6061 162.099C88.6061 162.099 81.1072 163.647 76.1846 164.074C71.9533 164.44 69.552 164.588 65.2491 164.357C60.937 164.125 58.4982 163.158 54.1839 162.886C49.2477 162.575 41.6326 163.108 41.6326 163.108L37.5354 164.35C37.5354 164.35 44.7248 166.243 49.3508 167.248C52.7937 167.996 58.1799 168.983 58.1799 168.983C58.1799 168.983 66.5805 169.955 71.7266 169.149C78.869 168.03 88.6061 162.099 88.6061 162.099ZM88.6061 162.099C88.6061 162.099 93.4817 158.981 96.6058 156.983" stroke="#D4B8A3" stroke-linecap="round"/>
<ellipse rx="5.81551" ry="4.84626" transform="matrix(-1 0 0 1 33.0873 290.739)" stroke="#D4B8A3"/>
<ellipse rx="6.78476" ry="7.75401" transform="matrix(-0.972683 0.232139 0.232139 0.972683 26.6258 260.117)" stroke="#D4B8A3"/>
<ellipse rx="6.78476" ry="5.81551" transform="matrix(-1 0 0 1 53.4416 266.508)" stroke="#D4B8A3"/>
<ellipse rx="5.81551" ry="4.84626" transform="matrix(-1 0 0 1 166.087 514.739)" stroke="#D4B8A3"/>
<ellipse rx="6.78476" ry="7.75401" transform="matrix(-0.972683 0.232139 0.232139 0.972683 159.626 484.117)" stroke="#D4B8A3"/>
<ellipse rx="6.78476" ry="5.81551" transform="matrix(-1 0 0 1 186.442 490.508)" stroke="#D4B8A3"/>
</svg>
