<svg width="508" height="536" viewBox="0 0 508 536" fill="none" xmlns="http://www.w3.org/2000/svg">
<path d="M315.878 162.681C315.315 164.782 337.764 218.163 349.058 244.591C360.353 271.018 366.646 334.575 360.752 362.705M315.878 162.681C309.472 188.874 294.044 244.074 294.044 244.074C294.044 244.074 291.405 298.575 291.392 324.419C291.379 350.262 292.077 357.059 294.745 377.759C299.223 412.504 297.824 434.318 315.929 465.116C326.288 482.738 349.874 506.056 349.874 506.056M315.878 162.681L325.461 220.517C325.461 220.517 346.97 307.177 360.752 362.705M360.752 362.705C357.791 401.259 356.053 422.871 353.17 461.429C351.867 478.856 349.874 506.056 349.874 506.056M349.874 506.056C342.586 468.156 327.843 390.669 327.843 390.669C327.843 390.669 318.717 274.744 312.869 200.465" stroke="#D5DED5" stroke-linecap="round"/>
<path d="M311.261 172.579L278.327 234.202L264.715 284.471M264.715 284.471C254.634 314.078 250.679 342.67 232.969 376.874C217.44 406.867 199.414 425.97 183.389 448.728C167.363 471.485 145.253 485.976 145.253 485.976L130.453 505.465L129.769 479.784C129.769 479.784 125.605 458.616 126.319 444.937C127.063 430.683 133.914 408.996 133.914 408.996M264.715 284.471C264.715 284.471 248.167 289.972 237.776 294.004C219.249 301.195 207.399 303.45 191.515 314.892C177.908 324.692 170.875 331.619 161.994 345.279C154.037 357.516 153.554 366.115 147.704 379.308C142.528 390.981 133.914 408.996 133.914 408.996M264.715 284.471C264.715 284.471 252.688 294.127 243.804 298.557C234.885 303.004 228.599 302.771 219.542 306.967C210.829 311.004 206.175 313.825 198.462 319.353C187.642 327.109 181.18 331.744 173.791 342.394C166.768 352.517 167.539 360.289 161.757 371.05C153.149 387.071 133.914 408.996 133.914 408.996M244.645 307.057C226.616 322.919 213.899 329.618 198.478 347.675C185.765 362.561 180.432 372.214 170.971 389.02C157.244 413.407 143.06 454.437 143.06 454.437" stroke="#D5DED5" stroke-linecap="round"/>
<path d="M286.668 187.03C286.668 187.03 215.538 221.404 175.916 251.208C138.669 279.224 90.1084 332.656 90.1084 332.656" stroke="#D5DED5" stroke-linecap="round"/>
<path d="M313.433 166.357C289.932 171.387 276.793 174.38 253.444 180.02C227.859 186.201 212.82 187.786 188.186 196.78C176.446 201.066 168.876 202.14 158.739 209.137C146.578 217.529 143.331 225.822 134.572 237.277C117.51 259.59 109.3 273.266 97.8714 298.415M313.433 166.357C282.226 203.591 263.322 223.615 227.631 257.245C206.021 277.607 195.379 290.899 170.34 307.547C147.313 322.858 131.186 326.573 106.597 339.606C77.2664 355.152 32.6495 381.258 32.6495 381.258C32.6495 381.258 51.4868 354.339 64.5899 337.757C77.0335 322.009 84.8741 313.779 97.8714 298.415M313.433 166.357C294.042 171.65 283.319 175.367 264.91 183.176C249.958 189.519 243.08 196.129 227.684 201.452C208.58 208.058 194.524 201.811 176.563 210.805C163.713 217.24 158.509 223.827 148.125 233.361C124.155 255.366 112.577 270.354 97.8714 298.415" stroke="#D5DED5" stroke-linecap="round"/>
<path d="M374.642 89.9187C374.642 89.9187 350.544 97.5673 334.566 98.1778C320.124 98.7296 312.292 95.1653 297.913 94.0822C275.099 92.3636 261.17 86.4931 239.255 93.0235C217.594 99.478 213.498 117.573 192.246 125.142C182.335 128.672 175.931 127.991 165.892 131.184C147.743 136.958 122.475 152.648 122.475 152.648M374.642 89.9187C374.642 89.9187 367.228 100.161 361.346 105.826C345.664 120.928 331.439 123.376 310.988 132.268C290.266 141.278 278.226 145.832 256.19 151.426C218.453 161.005 156.788 161.267 156.788 161.267M374.642 89.9187C374.642 89.9187 367.738 93.4967 363.098 95.353C350.99 100.197 330.384 102.883 330.384 102.883C330.384 102.883 308.757 103.144 294.989 102.096C281.659 101.081 274.419 96.2496 261.097 97.7271C245.204 99.4899 238.056 106.912 223.619 113.453C206.359 121.273 197.767 127.72 180.202 134.917C167.161 140.261 159.676 142.985 146.069 146.879C136.959 149.486 122.475 152.648 122.475 152.648M374.642 89.9187L345.7 107.375C345.7 107.375 319.217 120.363 301.026 125.53C283.3 130.565 272.66 130.644 254.423 133.577C233.719 136.907 221.983 138.002 201.293 141.412C184.488 144.182 174.787 144.684 158.371 149.094C142.498 153.359 118.883 163.303 118.883 163.303L156.788 161.267M122.475 152.648L101.233 172.775L156.788 161.267" stroke="#D5DED5" stroke-linecap="round"/>
<path d="M383.595 88.1327C383.595 88.1327 389.603 110.829 397.684 123.464C404.989 134.885 412.499 138.989 421.272 149.477C435.19 166.117 448.117 173.669 453.971 194.079C459.758 214.252 445.352 227.194 449.893 247.654C452.011 257.197 456.101 261.761 458.598 271.219C463.111 288.319 462.364 316.265 462.364 316.265M383.595 88.1327C383.595 88.1327 378.196 99.3822 376.174 106.976C370.783 127.222 376.229 139.501 379.122 160.061C382.054 180.893 384.383 192.629 391.163 212.625C402.775 246.869 435.888 294.502 435.888 294.502M383.595 88.1327C383.595 88.1327 384.042 95.3853 384.847 99.9627C386.946 111.908 395.624 129.23 395.624 129.23C395.624 129.23 407.082 146.027 415.492 156.063C423.634 165.78 431.988 168.743 437.836 179.801C444.813 192.995 441.861 202.514 443.662 217.171C445.814 234.693 444.539 244.797 447.428 262.217C449.573 275.151 451.119 282.389 454.902 294.975C457.435 303.4 462.364 316.265 462.364 316.265M383.595 88.1327L383.214 119.864C383.214 119.864 385.607 147.284 390.7 164.088C395.663 180.464 401.345 188.7 408.515 204.332C416.655 222.078 421.996 231.708 430.055 249.488C436.6 263.927 441.386 271.67 446.214 286.699C450.881 301.229 454.52 324.795 454.52 324.795L435.888 294.502M462.364 316.265L455.366 343.511L435.888 294.502" stroke="#D5DED5" stroke-linecap="round"/>
<path d="M509.898 1C475.484 15.1824 456.864 25.5166 427.084 46.9628C401.54 65.3579 388.833 77.7355 367.284 100.088C343.983 124.258 332.041 138.954 313.433 166.357" stroke="#D5DED5" stroke-linecap="round"/>
<ellipse cx="326.139" cy="63.7393" rx="5.81551" ry="4.84626" stroke="#D5DED5"/>
<ellipse cx="332.601" cy="33.1172" rx="6.78476" ry="7.75401" transform="rotate(13.423 332.601 33.1172)" stroke="#D5DED5"/>
<ellipse cx="305.785" cy="39.508" rx="6.78476" ry="5.81551" stroke="#D5DED5"/>
<ellipse cx="410.139" cy="399.739" rx="5.81551" ry="4.84626" stroke="#D5DED5"/>
<ellipse cx="416.601" cy="369.117" rx="6.78476" ry="7.75401" transform="rotate(13.423 416.601 369.117)" stroke="#D5DED5"/>
<ellipse cx="389.785" cy="375.508" rx="6.78476" ry="5.81551" stroke="#D5DED5"/>
</svg>
