<svg width="555" height="526" viewBox="0 0 555 526" fill="none" xmlns="http://www.w3.org/2000/svg">
<path d="M350.217 394.083C349.302 391.811 367.168 329.072 376.215 297.987C385.262 266.902 383.68 194.975 373.275 164.317M350.217 394.083C339.501 365.662 314.764 306.025 314.764 306.025C314.764 306.025 304.422 245.435 300.903 216.537C297.384 187.638 297.242 179.943 297.419 156.433C297.715 116.971 293.193 92.7673 309.263 55.8716C318.458 34.7601 341.671 5.48607 341.671 5.48607M350.217 394.083L353.091 328.108C353.091 328.108 365.393 228.282 373.275 164.317M373.275 164.317C364.736 121.605 359.861 97.6713 351.409 54.9447C347.588 35.6328 341.671 5.48607 341.671 5.48607M341.671 5.48607C338.661 48.8568 332.682 137.508 332.682 137.508C332.682 137.508 338.196 268.381 341.729 352.239" stroke="#AD8757" stroke-linecap="round"/>
<path d="M343.712 383.641L298.526 319.195L276.488 264.827M276.488 264.827C261.2 233.085 252.9 201.648 228.457 165.8C207.024 134.365 184.276 115.446 163.269 92.1707C142.262 68.8949 115.571 55.6884 115.571 55.6884L96.3782 35.9013L99.096 64.7117C99.096 64.7117 97.3102 88.948 99.9633 104.149C102.728 119.987 113.33 143.311 113.33 143.311M276.488 264.827C276.488 264.827 257.236 260.92 245.07 257.819C223.377 252.29 209.819 251.375 190.505 240.734C173.96 231.62 165.156 224.827 153.371 210.756C142.814 198.15 141.108 188.6 132.777 174.64C125.406 162.289 113.33 143.311 113.33 143.311M276.488 264.827C276.488 264.827 261.729 255.659 251.193 251.91C240.616 248.146 233.619 249.26 222.921 245.795C212.631 242.463 207.044 239.939 197.669 234.803C184.517 227.597 176.662 223.291 166.955 212.382C157.728 202.014 157.537 193.219 149.612 181.969C137.813 165.22 113.33 143.311 113.33 143.311M250.982 242.291C228.669 226.998 213.539 221.231 193.846 203.13C177.611 188.206 170.338 178.135 157.479 160.624C138.821 135.215 117.396 91.2548 117.396 91.2548" stroke="#AD8757" stroke-linecap="round"/>
<path d="M314.25 370.816C314.25 370.816 230.046 342.022 181.696 314.066C136.245 287.786 74.6954 234.62 74.6954 234.62" stroke="#AD8757" stroke-linecap="round"/>
<path d="M346.985 390.305C320.022 387.867 304.923 386.302 278.048 383.16C248.598 379.718 231.566 379.984 202.798 373.267C189.089 370.066 180.478 369.891 168.192 363.442C153.456 355.706 148.7 346.873 137.351 335.25C115.246 312.612 104.21 298.432 88.0196 271.858M346.985 390.305C307.037 352.899 283.182 333.069 238.71 300.302C211.782 280.461 198.079 267.041 167.822 251.819C139.995 237.819 121.456 235.852 92.1911 224.612C57.2838 211.205 3.84974 188.061 3.84974 188.061C3.84974 188.061 28.5653 215.609 45.4668 232.376C61.5176 248.299 71.4017 256.439 88.0196 271.858M346.985 390.305C324.582 387.015 312.086 384.313 290.441 378.076C272.861 373.01 264.273 366.551 246.334 362.686C224.075 357.89 209.203 366.781 187.898 359.159C172.656 353.706 165.944 347.045 153.039 337.792C123.249 316.435 108.27 301.244 88.0196 271.858" stroke="#AD8757" stroke-linecap="round"/>
<path d="M422.326 463.094C422.326 463.094 394.205 458.585 376.302 460.565C360.121 462.355 351.988 467.63 336.149 471.23C311.018 476.943 296.477 485.803 270.975 482.176C245.768 478.591 238.191 459.114 213.255 454.219C201.626 451.937 194.603 453.762 182.888 451.875C161.707 448.465 130.944 435.191 130.944 435.191M422.326 463.094C422.326 463.094 412.361 452.918 404.865 447.586C384.879 433.371 368.624 433.013 344.358 426.511C319.772 419.923 305.6 416.854 280.119 414.291C236.481 409.902 167.736 419.877 167.736 419.877M422.326 463.094C422.326 463.094 414.038 460.257 408.56 458.962C394.264 455.581 370.86 456.019 370.86 456.019C370.86 456.019 346.721 459.329 331.557 462.789C316.875 466.139 309.613 472.727 294.526 473.299C276.526 473.981 267.327 466.902 250.153 462.018C229.623 456.18 218.977 450.428 198.21 445.334C182.791 441.552 173.998 439.763 158.19 437.69C147.607 436.302 130.944 435.191 130.944 435.191M422.326 463.094L387.175 448.465C387.175 448.465 355.509 438.404 334.382 435.676C313.795 433.018 301.928 434.702 281.122 434.47C257.5 434.207 244.244 434.942 220.625 434.587C201.442 434.299 190.55 435.355 171.527 433.174C153.133 431.066 125.168 423.919 125.168 423.919L167.736 419.877M130.944 435.191L103.927 416.305L167.736 419.877" stroke="#AD8757" stroke-linecap="round"/>
<path d="M430.052 468.267C430.052 468.267 433.693 442.071 441.017 426.846C447.637 413.084 455.479 407.476 463.867 394.558C477.175 374.062 490.606 363.864 494.386 340.247C498.121 316.903 480.256 304.384 482.561 280.887C483.635 269.929 487.59 264.271 489.099 253.355C491.827 233.62 487.203 202.47 487.203 202.47M430.052 468.267C430.052 468.267 422.489 456.419 419.199 448.201C410.425 426.291 414.849 411.821 415.297 388.437C415.751 364.744 416.763 351.304 421.634 328.024C429.976 288.155 460.547 230.398 460.547 230.398M430.052 468.267C430.052 468.267 429.569 460.096 429.848 454.868C430.576 441.225 437.931 420.678 437.931 420.678C437.931 420.678 448.467 400.34 456.51 387.976C464.298 376.006 473.239 371.56 478.279 358.401C484.292 342.701 479.7 332.456 479.726 315.821C479.756 295.935 476.961 284.809 477.829 264.936C478.474 250.182 479.222 241.878 481.745 227.291C483.435 217.525 487.203 202.47 487.203 202.47M430.052 468.267L425.324 432.834C425.324 432.834 424.281 401.846 427.698 382.364C431.027 363.379 436.265 353.397 442.163 334.945C448.859 313.995 453.527 302.502 460.127 281.527C465.489 264.492 469.791 255.185 473.151 237.724C476.401 220.842 477.274 193.996 477.274 193.996L460.547 230.398M487.203 202.47L475.682 172.951L460.547 230.398" stroke="#AD8757" stroke-linecap="round"/>
<path d="M589.11 548.578C548.702 537.385 526.478 528.353 490.267 508.409C459.208 491.302 443.32 479.183 416.191 457.109C386.857 433.241 371.509 418.425 346.985 390.305" stroke="#AD8757" stroke-linecap="round"/>
</svg>
