<svg width="436" height="564" viewBox="0 0 436 564" fill="none" xmlns="http://www.w3.org/2000/svg">
<ellipse cx="189.139" cy="98.7393" rx="5.81551" ry="4.84626" stroke="white"/>
<ellipse cx="195.601" cy="68.1172" rx="6.78476" ry="7.75401" transform="rotate(13.423 195.601 68.1172)" stroke="white"/>
<ellipse cx="168.785" cy="74.508" rx="6.78476" ry="5.81551" stroke="white"/>
<ellipse cx="317.139" cy="330.739" rx="5.81551" ry="4.84626" stroke="#99B0A7"/>
<ellipse cx="323.601" cy="300.117" rx="6.78476" ry="7.75401" transform="rotate(13.423 323.601 300.117)" stroke="#99B0A7"/>
<ellipse cx="296.785" cy="306.508" rx="6.78476" ry="5.81551" stroke="#99B0A7"/>
<path d="M178.768 328.362C178.768 328.362 187.452 322.429 193.016 318.627M193.016 318.627C201.879 315.556 206.943 314.093 215.713 310.765C223.762 307.71 227.997 305.284 236.106 302.391C246.338 298.741 252.323 297.433 262.814 294.613C271.44 292.294 276.518 291.855 285 289.055C293.175 286.356 297.996 285.087 305.393 280.682C313.682 275.745 319.298 272.997 324.246 264.714C327.727 258.887 328.992 254.922 329.529 248.155M193.016 318.627C199.539 300.56 202.595 290.202 209.721 272.364C213.544 262.793 215.13 257.146 219.95 248.036C224.862 238.754 228.257 233.854 234.619 225.499C240.784 217.402 244.558 213.049 251.848 205.948C259.068 198.915 263.544 195.386 271.64 189.382C281.413 182.134 287.94 179.606 297.917 172.643C306.854 166.406 311.835 162.825 320.184 155.82C328.476 148.862 333.151 144.91 340.486 136.95C347.657 129.168 357.288 115.692 357.288 115.692C357.288 115.692 348.627 167.781 341.626 200.87C339.081 212.895 338.169 219.773 334.813 231.597C332.959 238.126 331.593 241.689 329.529 248.155M193.016 318.627C197.278 310.759 198.5 305.593 203.93 298.481C209.308 291.436 213.861 288.852 220.308 282.77C227.376 276.103 230.953 271.905 238.563 265.864C246.903 259.243 252.679 257.057 261.257 250.748C266.708 246.739 269.94 244.669 274.907 240.074C279.355 235.958 281.932 233.629 285.484 228.718C288.502 224.545 289.968 221.991 292.05 217.279M193.016 318.627C198.28 314.758 200.846 312.003 206.495 308.721C211.808 305.633 215.26 304.826 220.829 302.228C227.57 299.083 230.751 297.059 237.809 294.71C244.203 292.582 248.316 291.979 254.875 290.435C262.634 288.608 266.957 287.445 274.587 285.134C281.446 283.057 285.29 281.857 291.994 279.323C297.974 277.062 301.549 276.179 307.096 273C312.388 269.968 315.414 268.093 319.637 263.692C324.618 258.503 326.934 254.864 329.529 248.155" stroke="white"/>
<path d="M-14 550.769C8.55864 541.293 22.8275 539.166 43.765 526.505C62.6542 515.082 71.6059 506.077 87.8702 491.152C112.498 468.552 126.939 455.482 144.763 427.204C153.587 413.206 158.761 405.21 164.374 389.645C169.69 374.903 169.668 365.768 173.06 350.469C176.985 332.77 179.185 322.846 183.11 305.147C186.701 288.948 188.715 279.866 192.307 263.667C195.965 247.168 195.392 237.107 201.675 221.418C207.816 206.084 212.791 197.783 223.42 185.138" stroke="white" stroke-linecap="round"/>
<path d="M57.0745 517.367C57.0745 517.367 61.123 499.108 63.7171 487.409M63.7171 487.409C72.3159 478.32 76.6444 472.613 83.0777 461.882C90.1733 450.047 93.4212 442.804 97.4853 429.616C100.2 420.807 101.746 415.751 102.595 406.572C103.812 393.412 101.565 385.931 99.5921 372.863C97.4164 358.454 94.1535 350.764 91.5528 336.426C90.3715 329.913 89.7179 326.257 88.814 319.7C87.6197 311.037 86.4993 297.427 86.4993 297.427C86.4993 297.427 79.3021 309.223 74.219 316.464C69.5582 323.103 66.628 326.597 61.6816 333.026C57.3237 338.691 54.3519 341.484 50.4232 347.454C46.8963 352.814 44.7145 355.808 42.4078 361.795C39.9775 368.103 38.6607 378.695 38.6607 378.695C38.6607 378.695 37.8853 388.838 37.3884 395.337M63.7171 487.409C55.4867 473.71 51.5698 465.487 46.1193 450.464C40.8231 435.866 36.4411 427.505 36.1162 411.979C35.9798 405.463 36.8916 401.836 37.3884 395.337M63.7171 487.409C61.2128 477.411 59.8087 471.806 57.3044 461.809C55.6349 455.144 54.7519 451.394 53.0293 444.743C51.0307 437.026 50.0173 432.667 47.7288 425.031C44.2035 413.269 41.9317 406.745 37.3884 395.337M63.7171 487.409C66.0429 478.468 67.5004 473.488 70.3631 464.705C73.3391 455.573 75.1774 449.795 76.5811 440.294C77.7356 432.479 78.3883 429.037 77.5962 421.177C76.617 411.461 74.5053 406.549 73.3181 396.856C72.1583 387.387 72.1107 381.988 72.2825 372.449C72.4336 364.064 72.7694 359.35 73.8086 351.028" stroke="white" stroke-linecap="round"/>
<path d="M89.2361 492.261L117.988 475.264L137.182 457.76M137.182 457.76C137.182 457.76 154.169 445.924 165.507 439.057C175.372 433.082 181.376 430.544 191.273 424.622C200.968 418.821 206.209 415.248 215.674 409.078C224.594 403.263 229.111 399.226 238.368 393.962C254.67 384.692 264.653 380.559 282.737 375.593M137.182 457.76C137.182 457.76 151.224 441.409 157.224 429.161C161.583 420.262 160.854 413.878 165.747 405.261C169.954 397.852 173.811 394.683 179.223 388.101C184.986 381.093 187.006 375.766 194.405 370.514C202.958 364.443 209.551 364.079 219.748 361.626C231.464 358.808 238.423 359.41 250.384 357.942C263.985 356.273 271.559 354.867 285.201 353.573C294.782 352.665 300.156 351.913 309.779 351.77C320.992 351.602 327.446 351.156 338.454 353.292C351.551 355.834 370.463 365.225 370.463 365.225C370.463 365.225 352.266 371.775 341.794 378.211C332.309 384.04 327.286 387.984 319.358 395.801C314.364 400.726 311.744 403.706 307.502 409.291M137.182 457.76C137.182 457.76 164.892 461.671 182.757 463.03C199.885 464.333 209.816 467.828 226.709 464.716C243.395 461.642 252.349 456.808 266.726 447.799C275.228 442.473 279.708 438.938 287.116 432.172C295.952 424.101 299.54 418.227 307.502 409.291M137.182 457.76C137.182 457.76 150.8 462.658 159.716 465.174C171.545 468.512 178.191 470.999 190.442 471.987C201.214 472.856 207.31 471.601 218.092 470.865C228.078 470.182 233.986 471.217 243.608 468.463C249.755 466.704 253.042 465.098 258.711 462.141C266.226 458.22 270.294 455.55 276.712 450.014C282.139 445.333 284.738 442.191 289.337 436.694C297.575 426.846 300.408 419.993 307.502 409.291" stroke="white" stroke-linecap="round"/>
<path d="M224.408 184.551C224.408 184.551 239.833 178.842 247.359 171.91C251.908 167.72 255.108 165.276 259.472 160.895C265.776 154.567 268.847 151.704 275.681 145.952C281.94 140.683 285.183 137.411 290.95 131.608C296.967 125.551 300.441 122.209 305.792 115.556C310.799 109.331 313.778 105.86 317.561 98.8238C321.245 91.972 322.666 87.7555 324.892 80.3012C326.738 74.1182 328.469 64.1699 328.469 64.1699L331.705 49.5749C331.705 49.5749 322.199 63.0761 313.707 68.956C307.591 73.1902 303.072 73.6538 296.557 77.2422C286.468 82.7986 281.405 86.9249 271.986 93.5541C262.365 100.326 255.972 103.068 247.843 111.573C239.839 119.945 236.441 125.782 231.127 136.074C226.422 145.186 223.522 150.485 221.666 160.571C220.541 166.683 218.968 170.439 220.564 176.445C221.464 179.831 224.408 184.551 224.408 184.551ZM224.408 184.551C224.408 184.551 222.23 174.932 223.804 169.104C225.146 164.132 227.326 161.821 230.369 157.665C234.45 152.095 237.997 150.053 242.823 145.114C247.354 140.479 249.713 137.701 254.339 133.161C258.597 128.982 261.017 126.665 265.514 122.744C269.637 119.149 272.27 117.51 276.348 113.863C279.651 110.909 281.448 109.185 284.537 106.008" stroke="white"/>
<path d="M164.544 388.876L158.045 360.034C158.045 360.034 154.295 350.361 151.893 344.163M151.893 344.163C147.011 332.197 146.212 323.901 148.719 311.223C150.86 300.401 155.827 295.534 160.826 285.7C166.775 273.998 172.476 268.562 177.027 256.249C181.182 245.009 182.219 238.186 183.67 226.291C188.68 185.219 160.664 122.868 160.664 122.868C160.664 122.868 138.945 148.792 127.487 167.09C117.675 182.759 111.391 191.457 105.318 208.918C100.674 222.268 98.9175 230.192 97.4828 244.253M151.893 344.163C139.557 342.286 132.427 339.343 122.359 331.973C111.594 324.093 107.446 317.032 100.84 305.442C95.1431 295.446 91.1853 289.495 89.9886 278.052C88.5823 264.606 94.5561 257.453 97.4828 244.253M151.893 344.163C141.487 334.756 135.578 329.563 124.913 320.451C118.853 315.273 113.866 313.842 109.29 307.316C103.136 298.539 104.448 291.275 102.279 280.778C99.3681 266.689 99.3559 258.517 97.4828 244.253M151.893 344.163C145.492 334.991 142.725 328.97 139.932 318.14C136.675 305.509 132.812 310.27 138.466 284.772C144.12 259.273 152.943 219.478 152.943 219.478" stroke="white"/>
</svg>
