<svg width="377" height="463" viewBox="0 0 377 463" fill="none" xmlns="http://www.w3.org/2000/svg">
<path d="M126.021 387.448C51.3812 359.27 5.21794 308.918 0.398523 232.76C-5.27191 143.154 50.2087 131.665 126.021 78.0738C185.374 36.1168 247.669 -23.5453 312.868 9.6721C384.923 46.3822 338.924 117.284 344.697 194.759C349.613 260.747 378.785 285.566 344.697 343.251C301.96 415.573 207.158 418.079 126.021 387.448Z" fill="#667C74"/>
<path d="M197.881 131.846C194.73 131.846 192.171 134.405 192.171 137.556C192.171 140.706 194.73 143.266 197.881 143.266C201.022 143.266 203.591 140.706 203.591 137.556C203.591 134.405 201.022 131.846 197.881 131.846Z" fill="#99B0A7"/>
<path d="M133.866 183.663H261.896C244.426 169.398 222.133 160.833 197.881 160.833C173.619 160.833 151.326 169.397 133.866 183.663Z" fill="#99B0A7"/>
<path d="M80.7865 195.556L69.6266 212.499L80.8483 241.002C82.9335 229.467 86.6833 218.495 91.8569 208.364L80.7865 195.556Z" fill="#D5DED5"/>
<path d="M96.5285 262.185V299.45C96.5285 304.427 100.565 308.471 105.541 308.471H290.212C295.187 308.471 299.233 304.426 299.233 299.45V262.185C299.233 239.319 291.617 218.208 278.801 201.23H116.951C104.136 218.208 96.5285 239.319 96.5285 262.185Z" fill="#D5DED5"/>
<path d="M52.4437 206.646C50.8775 209.035 50.5634 212.033 51.6105 214.7L78.9608 284.139V299.45C78.9608 314.11 90.8815 326.039 105.541 326.039H290.212C304.871 326.039 316.801 314.11 316.801 299.45V262.185C316.801 235.095 307.69 210.099 292.378 190.079C293.192 185.024 293.613 179.886 293.613 174.74C293.613 121.947 250.664 79 197.881 79C145.088 79 102.149 121.947 102.149 174.74C102.149 179.877 102.56 185.023 103.375 190.079C102.73 190.921 102.103 191.78 101.478 192.639L86.4775 175.286C84.6786 173.21 82.0028 172.082 79.2642 172.27C76.5168 172.449 74.0109 173.898 72.4985 176.199L52.4437 206.646ZM69.6275 212.499L80.7874 195.556L91.8579 208.364C86.6851 218.494 82.9344 229.467 80.8492 241.002L69.6275 212.499ZM96.5286 299.45V262.185C96.5286 239.319 104.136 218.207 116.951 201.23H278.801C291.617 218.208 299.233 239.32 299.233 262.185V299.45C299.233 304.427 295.187 308.471 290.212 308.471H105.541C100.565 308.471 96.5286 304.426 96.5286 299.45ZM261.896 183.663H133.866C151.326 169.398 173.619 160.833 197.881 160.833C222.134 160.833 244.427 169.397 261.896 183.663ZM119.744 172.619C120.872 130.494 155.487 96.5677 197.882 96.5677C240.275 96.5677 274.891 130.485 276.019 172.619C260.349 158.926 241.072 149.279 219.826 145.305C220.685 142.88 221.15 140.276 221.15 137.555C221.15 124.722 210.715 114.278 197.882 114.278C185.048 114.278 174.604 124.722 174.604 137.555C174.604 140.276 175.078 142.88 175.937 145.305C154.682 149.279 135.406 158.926 119.744 172.619ZM192.171 137.555C192.171 134.404 194.73 131.845 197.881 131.845C201.022 131.845 203.591 134.404 203.591 137.555C203.591 140.705 201.022 143.265 197.881 143.265C194.731 143.265 192.171 140.705 192.171 137.555Z" fill="white"/>
<path d="M326.386 97.3342C326.386 89.6259 335.718 75 335.718 75C335.718 75 349.147 90.0212 346.031 98.9154C344.392 103.593 341.753 105.997 335.718 105.833C329.889 105.675 326.386 102.028 326.386 97.3342Z" stroke="#E2F0DA" stroke-width="2" stroke-linecap="round"/>
<path d="M317 150.971C317 143.262 326.331 128.636 326.331 128.636C326.331 128.636 339.76 143.658 336.645 152.552C335.006 157.23 332.366 159.633 326.331 159.47C320.503 159.311 317 155.664 317 150.971Z" stroke="#E2F0DA" stroke-width="2" stroke-linecap="round"/>
<path d="M349.182 141.677C349.182 131.623 361.624 112.545 361.624 112.545C361.624 112.545 379.529 132.138 375.375 143.739C373.19 149.841 369.67 152.976 361.624 152.762C353.852 152.556 349.182 147.799 349.182 141.677Z" stroke="#E2F0DA" stroke-width="2" stroke-linecap="round"/>
<path d="M326.386 154.114C326.386 154.114 328.622 153.154 329.739 152.27C330.688 151.518 331.75 150.091 331.75 150.091" stroke="#E2F0DA" stroke-width="2" stroke-linecap="round"/>
<path d="M337.114 100.477C337.114 100.477 339.35 99.5176 340.466 98.6336C341.415 97.8821 342.477 96.4546 342.477 96.4546" stroke="#E2F0DA" stroke-width="2" stroke-linecap="round"/>
<path d="M362.591 144.727C362.591 144.727 364.827 143.768 365.943 142.884C366.892 142.132 367.955 140.705 367.955 140.705" stroke="#E2F0DA" stroke-width="2" stroke-linecap="round"/>
    <path d="M13 88.0745C13 88.0745 18.4197 85.6568 20.809 88.0745C23.8217 91.123 17.271 98.7152 20.809 100.637C22.315 101.454 25 100.637 25 100.637" stroke="#B1BFEC" stroke-width="3" stroke-linecap="round">   <animate attributeName="stroke" values="#B1BFEC;#FFF; " dur="5s" repeatCount="indefinite"
                                                                                                                                                                                                                           keySplines="1 0 0.58 1"/></path>
<path d="M57 129.075C57 129.075 62.4197 126.657 64.809 129.075C67.8217 132.123 61.271 139.715 64.809 141.637C66.315 142.454 69 141.637 69 141.637" stroke="white" stroke-width="3" stroke-linecap="round"> <animate attributeName="stroke" values="#FFF;#B1BFEC; " dur="5s" repeatCount="indefinite"
                                                                                                                                                                                                                    keySplines="1 0 0.58 1"/></path>
<path d="M33 40.0745C33 40.0745 38.4197 37.6568 40.809 40.0745C43.8217 43.123 37.271 50.7152 40.809 52.6365C42.315 53.4543 45 52.6365 45 52.6365" stroke="white" stroke-width="3" stroke-linecap="round"> <animate attributeName="stroke" values="#FFF;#B1BFEC; " dur="5s" repeatCount="indefinite"
                                                                                                                                                                                                                   keySplines="1 0 0.58 1"/></path>
<path d="M17 33.0745C17 33.0745 22.4197 30.6568 24.809 33.0745C27.8217 36.123 21.271 43.7152 24.809 45.6365C26.315 46.4543 29 45.6365 29 45.6365" stroke="#B1BFEC" stroke-width="3" stroke-linecap="round">  <animate attributeName="stroke" values="#B1BFEC;#FFF; " dur="5s" repeatCount="indefinite"
                                                                                                                                                                                                                      keySplines="1 0 0.58 1"/></path>
<path d="M25 66.0745C25 66.0745 30.4197 63.6568 32.809 66.0745C35.8217 69.123 29.271 76.7152 32.809 78.6365C34.315 79.4543 37 78.6365 37 78.6365" stroke="white" stroke-width="3" stroke-linecap="round"> <animate attributeName="stroke" values="#FFF;#B1BFEC; " dur="5s" repeatCount="indefinite"
                                                                                                                                                                                                                   keySplines="1 0 0.58 1"/></path>
<path d="M23 161.075C23 161.075 28.4197 158.657 30.809 161.075C33.8217 164.123 27.271 171.715 30.809 173.637C32.315 174.454 35 173.637 35 173.637" stroke="white" stroke-width="3" stroke-linecap="round"> <animate attributeName="stroke" values="#FFF;#B1BFEC; " dur="5s" repeatCount="indefinite"
                                                                                                                                                                                                                    keySplines="1 0 0.58 1"/></path>
<path d="M5 54.0745C5 54.0745 10.4197 51.6568 12.809 54.0745C15.8217 57.123 9.27102 64.7152 12.809 66.6365C14.315 67.4543 17 66.6365 17 66.6365" stroke="white" stroke-width="3" stroke-linecap="round"> <animate attributeName="stroke" values="#FFF;#B1BFEC; " dur="5s" repeatCount="indefinite"
                                                                                                                                                                                                                  keySplines="1 0 0.58 1"/></path>
<path d="M45 63.0745C45 63.0745 50.4197 60.6568 52.809 63.0745C55.8217 66.123 49.271 73.7152 52.809 75.6365C54.315 76.4543 57 75.6365 57 75.6365" stroke="#B1BFEC" stroke-width="3" stroke-linecap="round">  <animate attributeName="stroke" values="#B1BFEC;#FFF; " dur="5s" repeatCount="indefinite"
                                                                                                                                                                                                                      keySplines="1 0 0.58 1"/></path>
<path d="M54 85.0745C54 85.0745 59.4197 82.6568 61.809 85.0745C64.8217 88.123 58.271 95.7152 61.809 97.6365C63.315 98.4543 66 97.6365 66 97.6365" stroke="white" stroke-width="3" stroke-linecap="round"> <animate attributeName="stroke" values="#FFF;#B1BFEC; " dur="5s" repeatCount="indefinite"
                                                                                                                                                                                                                   keySplines="1 0 0.58 1"/></path>
<path d="M47 164.075C47 164.075 52.4197 161.657 54.809 164.075C57.8217 167.123 51.271 174.715 54.809 176.637C56.315 177.454 59 176.637 59 176.637" stroke="#B1BFEC" stroke-width="3" stroke-linecap="round">  <animate attributeName="stroke" values="#B1BFEC;#FFF; " dur="5s" repeatCount="indefinite"
                                                                                                                                                                                                                       keySplines="1 0 0.58 1"/></path>
<path d="M54 150.075C54 150.075 59.4197 147.657 61.809 150.075C64.8217 153.123 58.271 160.715 61.809 162.637C63.315 163.454 66 162.637 66 162.637" stroke="white" stroke-width="3" stroke-linecap="round"> <animate attributeName="stroke" values="#FFF;#B1BFEC; " dur="5s" repeatCount="indefinite"
                                                                                                                                                                                                                    keySplines="1 0 0.58 1"/></path>
<path d="M35 143.075C35 143.075 40.4197 140.657 42.809 143.075C45.8217 146.123 39.271 153.715 42.809 155.637C44.315 156.454 47 155.637 47 155.637" stroke="white" stroke-width="3" stroke-linecap="round"> <animate attributeName="stroke" values="#FFF;#B1BFEC; " dur="5s" repeatCount="indefinite"
                                                                                                                                                                                                                    keySplines="1 0 0.58 1"/></path>
<path d="M41 121.075C41 121.075 46.4197 118.657 48.809 121.075C51.8217 124.123 45.271 131.715 48.809 133.637C50.315 134.454 53 133.637 53 133.637" stroke="#B1BFEC" stroke-width="3" stroke-linecap="round">  <animate attributeName="stroke" values="#B1BFEC;#FFF; " dur="5s" repeatCount="indefinite"
                                                                                                                                                                                                                       keySplines="1 0 0.58 1"/></path>
<path d="M47 99.0745C47 99.0745 52.4197 96.6568 54.809 99.0745C57.8217 102.123 51.271 109.715 54.809 111.637C56.315 112.454 59 111.637 59 111.637" stroke="white" stroke-width="3" stroke-linecap="round"> <animate attributeName="stroke" values="#FFF;#B1BFEC; " dur="5s" repeatCount="indefinite"
                                                                                                                                                                                                                    keySplines="1 0 0.58 1"/></path>
<path d="M23 113.075C23 113.075 28.4197 110.657 30.809 113.075C33.8217 116.123 27.271 123.715 30.809 125.637C32.315 126.454 35 125.637 35 125.637" stroke="white" stroke-width="3" stroke-linecap="round"> <animate attributeName="stroke" values="#FFF;#B1BFEC; " dur="5s" repeatCount="indefinite"
                                                                                                                                                                                                                    keySplines="1 0 0.58 1"/></path>
<path d="M31 94.0745C31 94.0745 36.4197 91.6568 38.809 94.0745C41.8217 97.123 35.271 104.715 38.809 106.637C40.315 107.454 43 106.637 43 106.637" stroke="white" stroke-width="3" stroke-linecap="round"> <animate attributeName="stroke" values="#FFF;#B1BFEC; " dur="5s" repeatCount="indefinite"
                                                                                                                                                                                                                   keySplines="1 0 0.58 1"/></path>
<path d="M15 132.075C15 132.075 20.4197 129.657 22.809 132.075C25.8217 135.123 19.271 142.715 22.809 144.637C24.315 145.454 27 144.637 27 144.637" stroke="#B1BFEC" stroke-width="3" stroke-linecap="round">  <animate attributeName="stroke" values="#B1BFEC;#FFF; " dur="5s" repeatCount="indefinite"
                                                                                                                                                                                                                       keySplines="1 0 0.58 1"/></path>
<path d="M245.381 377.342C245.381 377.342 241.048 354.876 259.128 348.181C275.487 342.124 294.84 372.271 311.905 368.649C331.245 364.545 324.82 326.746 343.85 321.384C355.474 318.109 370.915 330.734 370.915 330.734" stroke="#B1BFEC" stroke-width="5" stroke-linecap="round"/>
<path d="M245.381 377.342C245.381 377.342 241.048 354.876 259.128 348.181C275.487 342.124 294.84 372.271 311.905 368.649C331.245 364.545 324.82 326.746 343.85 321.384C355.474 318.109 370.915 330.734 370.915 330.734" stroke="#B1BFEC" stroke-width="5" stroke-linecap="round"/>
<path d="M245.381 377.342C245.381 377.342 241.048 354.876 259.128 348.181C275.487 342.124 294.84 372.271 311.905 368.649C331.245 364.545 324.82 326.746 343.85 321.384C355.474 318.109 370.915 330.734 370.915 330.734" stroke="#B1BFEC" stroke-width="5" stroke-linecap="round"/>
<path d="M245.381 377.342C245.381 377.342 241.048 354.876 259.128 348.181C275.487 342.124 294.84 372.271 311.905 368.649C331.245 364.545 324.82 326.746 343.85 321.384C355.474 318.109 370.915 330.734 370.915 330.734" stroke="#AD8757" stroke-width="5" stroke-linecap="round"/>
<path d="M185.913 427.384C185.913 427.384 182.442 409.386 196.927 404.022C210.033 399.169 225.538 423.322 239.21 420.42C254.704 417.132 249.557 386.849 264.803 382.553C274.116 379.929 286.487 390.044 286.487 390.044" stroke="#B1BFEC" stroke-width="5" stroke-linecap="round"/>
<path d="M185.913 427.384C185.913 427.384 182.442 409.386 196.927 404.022C210.033 399.169 225.538 423.322 239.21 420.42C254.704 417.132 249.557 386.849 264.803 382.553C274.116 379.929 286.487 390.044 286.487 390.044" stroke="#B1BFEC" stroke-width="5" stroke-linecap="round"/>
<path d="M185.913 427.384C185.913 427.384 182.442 409.386 196.927 404.022C210.033 399.169 225.538 423.322 239.21 420.42C254.704 417.132 249.557 386.849 264.803 382.553C274.116 379.929 286.487 390.044 286.487 390.044" stroke="#B1BFEC" stroke-width="5" stroke-linecap="round"/>
<path d="M185.913 427.384C185.913 427.384 182.442 409.386 196.927 404.022C210.033 399.169 225.538 423.322 239.21 420.42C254.704 417.132 249.557 386.849 264.803 382.553C274.116 379.929 286.487 390.044 286.487 390.044" stroke="#B1BFEC" stroke-width="5" stroke-linecap="round"/>
</svg>
