<svg width="377" height="463" viewBox="0 0 377 463" fill="none" xmlns="http://www.w3.org/2000/svg">
    <path d="M126.021 387.448C51.3812 359.27 5.21794 308.918 0.398523 232.76C-5.27191 143.154 50.2087 131.665 126.021 78.0738C185.374 36.1168 247.669 -23.5453 312.868 9.6721C384.923 46.3822 338.924 117.284 344.697 194.759C349.613 260.747 378.785 285.566 344.697 343.251C301.96 415.573 207.158 418.079 126.021 387.448Z" fill="#667C74"/>
<path d="M197.881 131.846C194.73 131.846 192.171 134.405 192.171 137.556C192.171 140.706 194.73 143.266 197.881 143.266C201.022 143.266 203.591 140.706 203.591 137.556C203.591 134.405 201.022 131.846 197.881 131.846Z" fill="#99B0A7"/>
<path d="M133.866 183.663H261.896C244.426 169.398 222.133 160.833 197.881 160.833C173.619 160.833 151.326 169.397 133.866 183.663Z" fill="#99B0A7"/>
<path d="M80.7865 195.556L69.6266 212.499L80.8483 241.002C82.9335 229.467 86.6833 218.495 91.8569 208.364L80.7865 195.556Z" fill="#D5DED5"/>
<path d="M96.5285 262.185V299.45C96.5285 304.427 100.565 308.471 105.541 308.471H290.212C295.187 308.471 299.233 304.426 299.233 299.45V262.185C299.233 239.319 291.617 218.208 278.801 201.23H116.951C104.136 218.208 96.5285 239.319 96.5285 262.185Z" fill="#D5DED5"/>
<path d="M52.4437 206.646C50.8775 209.035 50.5634 212.033 51.6105 214.7L78.9608 284.139V299.45C78.9608 314.11 90.8815 326.039 105.541 326.039H290.212C304.871 326.039 316.801 314.11 316.801 299.45V262.185C316.801 235.095 307.69 210.099 292.378 190.079C293.192 185.024 293.613 179.886 293.613 174.74C293.613 121.947 250.664 79 197.881 79C145.088 79 102.149 121.947 102.149 174.74C102.149 179.877 102.56 185.023 103.375 190.079C102.73 190.921 102.103 191.78 101.478 192.639L86.4775 175.286C84.6786 173.21 82.0028 172.082 79.2642 172.27C76.5168 172.449 74.0109 173.898 72.4985 176.199L52.4437 206.646ZM69.6275 212.499L80.7874 195.556L91.8579 208.364C86.6851 218.494 82.9344 229.467 80.8492 241.002L69.6275 212.499ZM96.5286 299.45V262.185C96.5286 239.319 104.136 218.207 116.951 201.23H278.801C291.617 218.208 299.233 239.32 299.233 262.185V299.45C299.233 304.427 295.187 308.471 290.212 308.471H105.541C100.565 308.471 96.5286 304.426 96.5286 299.45ZM261.896 183.663H133.866C151.326 169.398 173.619 160.833 197.881 160.833C222.134 160.833 244.427 169.397 261.896 183.663ZM119.744 172.619C120.872 130.494 155.487 96.5677 197.882 96.5677C240.275 96.5677 274.891 130.485 276.019 172.619C260.349 158.926 241.072 149.279 219.826 145.305C220.685 142.88 221.15 140.276 221.15 137.555C221.15 124.722 210.715 114.278 197.882 114.278C185.048 114.278 174.604 124.722 174.604 137.555C174.604 140.276 175.078 142.88 175.937 145.305C154.682 149.279 135.406 158.926 119.744 172.619ZM192.171 137.555C192.171 134.404 194.73 131.845 197.881 131.845C201.022 131.845 203.591 134.404 203.591 137.555C203.591 140.705 201.022 143.265 197.881 143.265C194.731 143.265 192.171 140.705 192.171 137.555Z" fill="white"/>
<path d="M326.386 97.3342C326.386 89.6259 335.718 75 335.718 75C335.718 75 349.147 90.0212 346.031 98.9154C344.392 103.593 341.753 105.997 335.718 105.833C329.889 105.675 326.386 102.028 326.386 97.3342Z" stroke="#E2F0DA" stroke-width="2" stroke-linecap="round"/>
<path d="M317 150.971C317 143.262 326.331 128.636 326.331 128.636C326.331 128.636 339.76 143.658 336.645 152.552C335.006 157.23 332.366 159.633 326.331 159.47C320.503 159.311 317 155.664 317 150.971Z" stroke="#E2F0DA" stroke-width="2" stroke-linecap="round"/>
<path d="M349.182 141.677C349.182 131.623 361.624 112.545 361.624 112.545C361.624 112.545 379.529 132.138 375.375 143.739C373.19 149.841 369.67 152.976 361.624 152.762C353.852 152.556 349.182 147.799 349.182 141.677Z" stroke="#E2F0DA" stroke-width="2" stroke-linecap="round"/>
<path d="M326.386 154.114C326.386 154.114 328.622 153.154 329.739 152.27C330.688 151.518 331.75 150.091 331.75 150.091" stroke="#E2F0DA" stroke-width="2" stroke-linecap="round"/>
<path d="M337.114 100.477C337.114 100.477 339.35 99.5176 340.466 98.6336C341.415 97.8821 342.477 96.4546 342.477 96.4546" stroke="#E2F0DA" stroke-width="2" stroke-linecap="round"/>
<path d="M362.591 144.727C362.591 144.727 364.827 143.768 365.943 142.884C366.892 142.132 367.955 140.705 367.955 140.705" stroke="#E2F0DA" stroke-width="2" stroke-linecap="round"/>
<path d="M41 63.0745C41 63.0745 46.4197 60.6568 48.809 63.0745C51.8217 66.123 45.271 73.7152 48.809 75.6365C50.315 76.4543 53 75.6365 53 75.6365" stroke="#B1BFEC" stroke-width="3" stroke-linecap="round"/>
<path d="M85 104.075C85 104.075 90.4197 101.657 92.809 104.075C95.8217 107.123 89.271 114.715 92.809 116.637C94.315 117.454 97 116.637 97 116.637" stroke="white" stroke-width="3" stroke-linecap="round"/>
<path d="M112 25.0745C112 25.0745 117.42 22.6568 119.809 25.0745C122.822 28.123 116.271 35.7152 119.809 37.6365C121.315 38.4543 124 37.6365 124 37.6365" stroke="white" stroke-width="3" stroke-linecap="round"/>
<path d="M51 136.075C51 136.075 56.4197 133.657 58.809 136.075C61.8217 139.123 55.271 146.715 58.809 148.637C60.315 149.454 63 148.637 63 148.637" stroke="white" stroke-width="3" stroke-linecap="round"/>
<path d="M126 11.0745C126 11.0745 131.42 8.65683 133.809 11.0745C136.822 14.123 130.271 21.7152 133.809 23.6365C135.315 24.4543 138 23.6365 138 23.6365" stroke="white" stroke-width="3" stroke-linecap="round"/>
<path d="M103 43.0745C103 43.0745 108.42 40.6568 110.809 43.0745C113.822 46.123 107.271 53.7152 110.809 55.6365C112.315 56.4543 115 55.6365 115 55.6365" stroke="#B1BFEC" stroke-width="3" stroke-linecap="round"/>
<path d="M82 60.0745C82 60.0745 87.4197 57.6568 89.809 60.0745C92.8217 63.123 86.271 70.7152 89.809 72.6365C91.315 73.4543 94 72.6365 94 72.6365" stroke="white" stroke-width="3" stroke-linecap="round"/>
<path d="M75 139.075C75 139.075 80.4197 136.657 82.809 139.075C85.8217 142.123 79.271 149.715 82.809 151.637C84.315 152.454 87 151.637 87 151.637" stroke="#B1BFEC" stroke-width="3" stroke-linecap="round"/>
<path d="M82 125.075C82 125.075 87.4197 122.657 89.809 125.075C92.8217 128.123 86.271 135.715 89.809 137.637C91.315 138.454 94 137.637 94 137.637" stroke="white" stroke-width="3" stroke-linecap="round"/>
<path d="M63 118.075C63 118.075 68.4197 115.657 70.809 118.075C73.8217 121.123 67.271 128.715 70.809 130.637C72.315 131.454 75 130.637 75 130.637" stroke="white" stroke-width="3" stroke-linecap="round"/>
<path d="M69 96.0745C69 96.0745 74.4197 93.6568 76.809 96.0745C79.8217 99.123 73.271 106.715 76.809 108.637C78.315 109.454 81 108.637 81 108.637" stroke="#B1BFEC" stroke-width="3" stroke-linecap="round"/>
<path d="M75 74.0745C75 74.0745 80.4197 71.6568 82.809 74.0745C85.8217 77.123 79.271 84.7152 82.809 86.6365C84.315 87.4543 87 86.6365 87 86.6365" stroke="white" stroke-width="3" stroke-linecap="round"/>
<path d="M51 88.0745C51 88.0745 56.4197 85.6568 58.809 88.0745C61.8217 91.123 55.271 98.7152 58.809 100.637C60.315 101.454 63 100.637 63 100.637" stroke="white" stroke-width="3" stroke-linecap="round"/>
<path d="M63 52.0745C63 52.0745 68.4197 49.6568 70.809 52.0745C73.8217 55.123 67.271 62.7152 70.809 64.6365C72.315 65.4543 75 64.6365 75 64.6365" stroke="#B1BFEC" stroke-width="3" stroke-linecap="round"/>
<path d="M43 107.075C43 107.075 48.4197 104.657 50.809 107.075C53.8217 110.123 47.271 117.715 50.809 119.637C52.315 120.454 55 119.637 55 119.637" stroke="#B1BFEC" stroke-width="3" stroke-linecap="round"/>
<path d="M245.381 377.342C245.381 377.342 241.048 354.876 259.128 348.181C275.487 342.124 294.84 372.271 311.905 368.649C331.245 364.545 324.82 326.746 343.85 321.384C355.474 318.109 370.915 330.734 370.915 330.734" stroke="#B1BFEC" stroke-width="5" stroke-linecap="round"/>
<path d="M245.381 377.342C245.381 377.342 241.048 354.876 259.128 348.181C275.487 342.124 294.84 372.271 311.905 368.649C331.245 364.545 324.82 326.746 343.85 321.384C355.474 318.109 370.915 330.734 370.915 330.734" stroke="#B1BFEC" stroke-width="5" stroke-linecap="round"/>
<path d="M245.381 377.342C245.381 377.342 241.048 354.876 259.128 348.181C275.487 342.124 294.84 372.271 311.905 368.649C331.245 364.545 324.82 326.746 343.85 321.384C355.474 318.109 370.915 330.734 370.915 330.734" stroke="#B1BFEC" stroke-width="5" stroke-linecap="round"/>
<path d="M245.381 377.342C245.381 377.342 241.048 354.876 259.128 348.181C275.487 342.124 294.84 372.271 311.905 368.649C331.245 364.545 324.82 326.746 343.85 321.384C355.474 318.109 370.915 330.734 370.915 330.734" stroke="#AD8757" stroke-width="5" stroke-linecap="round"/>
<path d="M185.913 427.384C185.913 427.384 182.442 409.386 196.927 404.022C210.033 399.169 225.538 423.322 239.21 420.42C254.704 417.132 249.557 386.849 264.803 382.553C274.116 379.929 286.487 390.044 286.487 390.044" stroke="#B1BFEC" stroke-width="5" stroke-linecap="round"/>
<path d="M185.913 427.384C185.913 427.384 182.442 409.386 196.927 404.022C210.033 399.169 225.538 423.322 239.21 420.42C254.704 417.132 249.557 386.849 264.803 382.553C274.116 379.929 286.487 390.044 286.487 390.044" stroke="#B1BFEC" stroke-width="5" stroke-linecap="round"/>
<path d="M185.913 427.384C185.913 427.384 182.442 409.386 196.927 404.022C210.033 399.169 225.538 423.322 239.21 420.42C254.704 417.132 249.557 386.849 264.803 382.553C274.116 379.929 286.487 390.044 286.487 390.044" stroke="#B1BFEC" stroke-width="5" stroke-linecap="round"/>
<path d="M185.913 427.384C185.913 427.384 182.442 409.386 196.927 404.022C210.033 399.169 225.538 423.322 239.21 420.42C254.704 417.132 249.557 386.849 264.803 382.553C274.116 379.929 286.487 390.044 286.487 390.044" stroke="#B1BFEC" stroke-width="5" stroke-linecap="round"/>
</svg>
