<svg width="50" height="123" viewBox="0 0 50 123" fill="none" xmlns="http://www.w3.org/2000/svg">
<path fill-rule="evenodd" clip-rule="evenodd" d="M14.5833 20.8333C14.5833 15.0804 19.247 10.4167 25 10.4167C30.753 10.4167 35.4167 15.0804 35.4167 20.8333V29.1667C35.4167 34.9196 30.753 39.5833 25 39.5833C19.247 39.5833 14.5833 34.9196 14.5833 29.1667V20.8333Z" stroke="white" stroke-width="3" stroke-linecap="round" stroke-linejoin="round"/>
<path d="M25 18.75V22.9167" stroke="white" stroke-width="3" stroke-linecap="round"/>
<circle cx="25" cy="53" r="3" fill="white"/>
<circle cx="25" cy="53" r="3" fill="white"/>
<circle cx="25" cy="53" r="3" fill="white"/>
<circle cx="25" cy="53" r="3" fill="white"/>
<circle cx="25" cy="95" r="3" fill="white"/>
<circle cx="25" cy="95" r="3" fill="white"/>
<circle cx="25" cy="95" r="3" fill="white"/>
<circle cx="25" cy="95" r="3" fill="white"/>
<circle cx="25" cy="74" r="3" fill="white"/>
<circle cx="25" cy="74" r="3" fill="white"/>
<circle cx="25" cy="74" r="3" fill="white"/>
<circle cx="25" cy="74" r="3" fill="white"/>
<path d="M15 109L24.5 120L33.5 109" stroke="white" stroke-width="3"/>
</svg>
